<svg xmlns="http://www.w3.org/2000/svg" width="38" height="50" viewBox="0 0 38 50" fill="none" class="w-full"><path fill-rule="evenodd" clip-rule="evenodd" d="M9.02848 49.7994H7.19874L6.48424 47.2283H3.11064L2.39614 49.7994H0.623657L3.73964 38.4281H5.74075L9.02848 49.7994ZM5.96938 45.371L4.769 41.0857L3.65377 45.371H5.96938ZM15.6036 49.7994H14.0597V48.6283C13.8025 49.1425 13.4593 49.4858 13.1448 49.6285C12.8307 49.7997 12.4872 50.0004 12.1441 50.0004C11.5151 50.0004 10.8865 49.5713 10.4289 48.8572C9.91435 48.2003 9.68573 47.0578 9.68573 45.7147C9.68573 44.3437 9.91472 43.1429 10.3433 42.4288C10.8006 41.7433 11.4582 41.3149 12.2303 41.3149C12.8307 41.3149 13.4597 41.7433 14.0025 42.5146V38.4285H15.6036V49.7994ZM11.2582 45.5144C11.2582 46.3712 11.3727 47.1425 11.5155 47.4858C11.7731 48 12.1445 48.3426 12.5735 48.3426C12.9735 48.3426 13.288 48.0855 13.5452 47.7715C13.8025 47.3424 14.0025 46.6283 14.0025 45.7715C14.0025 44.8568 13.8597 44.0859 13.6025 43.6567C13.3735 43.2284 12.9735 42.9426 12.5735 42.9426C12.2303 42.9426 11.9158 43.2284 11.63 43.5717C11.3723 44 11.2582 44.6569 11.2582 45.5144ZM16.9184 45.5144C16.9184 44.8568 17.0039 44.1427 17.2616 43.4858C17.5474 42.8003 17.9192 42.2861 18.3764 41.9428C18.8623 41.5717 19.4627 41.3146 20.0348 41.3146C20.921 41.3146 21.75 41.743 22.2931 42.5143C22.8935 43.371 23.208 44.5143 23.208 45.7143C23.208 46.9144 22.8935 48 22.2931 48.7717C21.6642 49.5712 20.921 50.0004 20.0348 50.0004C19.4917 50.0004 18.9485 49.7997 18.434 49.4862C17.9195 49.1429 17.5478 48.6287 17.2619 48.0004C17.0047 47.3428 16.9188 46.486 16.9188 45.6285L16.9184 45.5144ZM18.5192 45.7143C18.5192 46.5718 18.605 47.2287 18.8623 47.6571C19.1482 48.0855 19.5772 48.3426 19.9775 48.3426C20.3489 48.3426 20.7779 48.0855 21.0352 47.6571C21.321 47.2287 21.4924 46.5718 21.4924 45.7143C21.4924 44.8568 21.321 44.1427 21.0352 43.7143C20.7779 43.2287 20.3489 42.9426 19.9775 42.9426C19.5772 42.9426 19.1772 43.2284 18.9482 43.6567C18.6909 44.1423 18.5192 44.8568 18.5192 45.7143ZM24.4656 49.7994V38.4281H26.066V42.5143C26.524 41.7426 27.1812 41.3146 27.8099 41.3146C28.553 41.3146 29.1824 41.743 29.6682 42.4284C30.1541 43.1425 30.4403 44.2285 30.4403 45.6285C30.4403 47.0002 30.1545 48.2003 29.6682 48.8572C29.1537 49.5713 28.5251 50.0004 27.8957 50.0004C27.553 50.0004 27.1812 49.7997 26.8664 49.6285C26.5236 49.4858 26.2091 49.0574 26.037 48.6283V49.7994H24.4656ZM26.066 45.5144C26.066 46.3712 26.2095 47.1425 26.3519 47.4858C26.6091 48 27.0385 48.3426 27.4957 48.3426C27.8957 48.3426 28.2102 48.0855 28.4389 47.7715C28.6961 47.4282 28.8389 46.6283 28.8389 45.7715C28.8389 44.8568 28.6961 44.0859 28.4389 43.6567C28.2102 43.2284 27.8095 42.9426 27.4095 42.9426C27.0381 42.9426 26.7236 43.2284 26.4664 43.5717C26.2095 44 26.066 44.6569 26.066 45.5144ZM35.2998 47.2287L36.9009 47.4858C36.7288 48.3426 36.3288 49.0574 35.9292 49.3714C35.4719 49.7147 34.8426 50.0004 34.1853 50.0004C33.2136 50.0004 32.3556 49.4862 31.8693 48.6287C31.4693 47.9146 31.2972 46.9144 31.2972 45.7719C31.2972 44.4288 31.5259 43.2863 32.0404 42.5146C32.5549 41.7429 33.2983 41.3149 34.0987 41.3149C34.9846 41.3149 35.6998 41.7433 36.1861 42.5146C36.7288 43.3714 37.0433 44.6573 37.0433 46.2861H32.8991C32.8991 47.0002 32.985 47.4858 33.2712 47.857C33.5277 48.2003 33.8426 48.3426 34.1857 48.3426C34.4716 48.3426 34.7288 48.2861 34.8429 48.0855C34.9853 47.9142 35.1574 47.5716 35.2998 47.2287ZM35.4433 44.9426C35.4433 44.343 35.2147 43.8002 35.0426 43.4855C34.814 43.1422 34.4712 42.9426 34.1567 42.9426C33.7846 42.9426 33.4422 43.2284 33.2708 43.5717C32.985 43.9142 32.8987 44.4284 32.8987 44.9426H35.4433Z" fill="#272343"></path><path fill-rule="evenodd" clip-rule="evenodd" d="M0.337952 0H14.0599L0.337952 33.4001V0ZM23.4078 0H37.3011V32.971L23.4078 0ZM18.8911 12.7712L26.4669 32.8001H21.7785L18.548 26.4575H13.4023L18.8911 12.7712Z" fill="#272343"></path></svg>