<svg xmlns="http://www.w3.org/2000/svg" width="42" height="50" viewBox="0 0 42 50" fill="none" class="w-full"><path d="M22.9986 4.35235C26.2851 0.0225125 30.854 0.00140381 30.854 0.00140381C30.854 0.00140381 31.5336 4.07219 28.2687 7.99365C24.7826 12.1809 20.8202 11.4957 20.8202 11.4957C20.8202 11.4957 20.0762 8.2026 22.9986 4.35235ZM21.2382 14.3473C22.9289 14.3473 26.0668 12.0242 30.1511 12.0242C37.1816 12.0242 39.9475 17.0248 39.9475 17.0248C39.9475 17.0248 34.538 19.7894 34.538 26.4976C34.538 34.0649 41.2767 36.6729 41.2767 36.6729C41.2767 36.6729 36.5661 49.926 30.2035 49.926C27.2811 49.926 25.0092 47.9574 21.93 47.9574C18.7922 47.9574 15.6783 49.9994 13.6502 49.9994C7.84014 49.9995 0.5 37.4276 0.5 27.3219C0.5 17.3792 6.71295 12.1635 12.5404 12.1635C16.3288 12.1635 19.2687 14.3473 21.2382 14.3473Z" fill="#272343"></path></svg>