<svg xmlns="http://www.w3.org/2000/svg" width="45" height="40" viewBox="0 0 45 40" fill="none" class="lg:-rotate-90 transform lg:mx-5 lg:w-1/4"><g opacity="0.9"><path d="M22.3739 22.0876L34.7326 9.73267L42.3739 10.2674L42.3739 17.3739L22.3739 37.3739L2.3739 17.3739L2.3739 10.2674L10.0152 9.73267L22.3739 22.0876Z" stroke="#252B36" stroke-width="4" stroke-linecap="round" stroke-linejoin="round"></path><path d="M22.3739 22.0876L34.7326 9.73267L42.3739 10.2674L42.3739 17.3739L22.3739 37.3739L2.3739 17.3739L2.3739 10.2674L10.0152 9.73267L22.3739 22.0876Z" fill="#FFFF66"></path><path d="M2.3739 10.2674L10.0152 9.73267L22.3739 22.0876L22.3739 37.3739L2.3739 17.3739L2.3739 10.2674Z" fill="#E53170"></path><path d="M22.3739 14.981L34.7326 2.6261L42.3739 10.2674L22.3739 30.2673L2.3739 10.2674L10.0152 2.6261L22.3739 14.981Z" fill="#FF8906" stroke="#272343" stroke-width="4" stroke-linecap="round" stroke-linejoin="round"></path><path d="M22.3739 37.3739L22.3739 30.2673" stroke="#272343" stroke-width="4" stroke-linecap="round" stroke-linejoin="round"></path></g></svg>