<svg xmlns="http://www.w3.org/2000/svg" width="94" height="94" viewBox="0 0 94 94" fill="none"><path d="M30.1485 64.8196H21.1039H18.0891V58.9105C18.0891 55.6394 19.0086 52.5039 20.6668 49.8358C22.3249 47.1526 24.7217 44.9216 27.6461 43.4594C29.3043 42.6303 31.0831 42.0725 32.9221 41.8163L37.6856 41.1379L39.193 51.2528L42.7807 49.0971L45.2227 52.7602L42.2079 72.3567L46.7301 78.3864L51.2524 72.3567L48.2375 52.7602L50.6796 49.0971L54.2672 51.2528L55.7747 41.1379L60.5381 41.8163C62.3772 42.0725 64.1559 42.6303 65.8141 43.4594C68.7385 44.9216 71.1353 47.1526 72.7935 49.8358C74.4516 52.5039 75.3712 55.6394 75.3712 58.9105V64.8196H72.3563H63.3118V91.9532H30.1485V64.8196Z" fill="#F25F4C"></path><path d="M48.2377 52.76L51.2525 72.3565L46.7302 78.3862L42.208 72.3565L45.2228 52.76H48.2377Z" fill="#FF8906"></path><path d="M46.7301 46.7301L50.6796 49.0968L48.2376 52.7598H45.2227L42.7807 49.0968L46.7301 46.7301Z" fill="#FF8906"></path><path d="M40.7004 40.7003L46.7301 46.73L42.7806 49.0967L39.193 51.2523L37.6856 41.1375L40.7004 40.7003Z" fill="#E6E9ED"></path><path d="M50.6796 49.0967L46.7301 46.73L52.7598 40.7003L55.7746 41.1375L54.2672 51.2523L50.6796 49.0967Z" fill="#E6E9ED"></path><path d="M63.3117 12.0594C63.3117 13.5668 62.9348 15.3757 62.558 16.7776C62.1811 18.1946 61.8043 19.2347 61.8043 19.2347L61.7892 19.2498C60.9903 18.5262 59.9501 18.089 58.7894 18.089H57.282V16.5816C57.282 14.0793 55.2621 12.0594 52.7597 12.0594C45.2226 12.0594 43.7152 16.5816 36.1781 18.089H34.6707C33.5099 18.089 32.4547 18.5262 31.6558 19.2498L30.3745 14.4411C30.2238 13.8532 30.1484 13.2653 30.1484 12.6623C30.1484 11.1247 30.6308 9.67762 31.4749 8.47168C32.3191 7.26574 33.525 6.31607 34.9721 5.78847L44.891 2.18573C46.112 1.7335 47.3933 1.50739 48.6897 1.50739C50.4383 1.50739 52.1568 1.92946 53.6793 2.68318C55.2018 3.45196 56.5584 4.56746 57.6136 5.96936L58.7894 7.53708C60.0406 7.53708 61.1712 8.0496 61.9852 8.86361C62.7992 9.67762 63.3117 10.8082 63.3117 12.0594Z" fill="#FCD770"></path><path d="M21.1038 64.8192H30.1484V91.9528H21.1038V64.8192Z" fill="#F0D0B4"></path><path d="M63.3118 64.8192H72.3564V91.9528H63.3118V64.8192Z" fill="#F0D0B4"></path><path d="M57.1614 27.1337C57.2518 26.6362 57.282 26.1388 57.282 25.6262V18.0891H58.7894C59.9501 18.0891 60.9903 18.5263 61.7892 19.2498C62.7238 20.0488 63.3117 21.2698 63.3117 22.6114C63.3117 23.8625 62.7992 24.9931 61.9851 25.8071C61.1711 26.6211 60.0406 27.1337 58.7894 27.1337H57.1765H57.1614Z" fill="#F0D0B4"></path><path d="M51.3578 35.1082L52.7597 40.7007L46.73 46.7304L40.7003 40.7007L42.1022 35.1082C43.4891 35.8016 45.0568 36.1784 46.73 36.1784C48.4033 36.1784 49.971 35.8016 51.3578 35.1082Z" fill="#F0D0B4"></path><path d="M57.2821 18.089V25.6261C57.2821 26.1387 57.252 26.6361 57.1615 27.1336C56.8449 29.455 55.7747 31.5051 54.1919 33.0879C53.3628 33.917 52.4131 34.5953 51.3579 35.1078C49.9711 35.8013 48.4034 36.1781 46.7301 36.1781C45.0569 36.1781 43.4892 35.8013 42.1024 35.1078C39.0272 33.6155 36.7811 30.6609 36.2988 27.1336C36.2083 26.6361 36.1782 26.1387 36.1782 25.6261V18.089C43.7153 16.5816 45.2227 12.0593 52.7598 12.0593C55.2622 12.0593 57.2821 14.0793 57.2821 16.5816V18.089Z" fill="#F0D0B4"></path><path d="M36.1781 25.6262C36.1781 26.1388 36.2082 26.6362 36.2987 27.1337H36.2836H34.6707C33.4195 27.1337 32.2889 26.6211 31.4749 25.8071C30.6609 24.9931 30.1484 23.8625 30.1484 22.6114C30.1484 21.2698 30.7212 20.0638 31.6558 19.2498C32.4547 18.5263 33.5099 18.0891 34.6707 18.0891H36.1781V25.6262Z" fill="#F0D0B4"></path><path d="M9.04466 21.7278V63.3116H12.0595V21.7278L18.5309 28.1992L20.6624 26.0677L10.5521 15.9574L0.441795 26.0677L2.57329 28.1992L9.04466 21.7278Z" fill="#E53170"></path><path d="M87.4307 66.3265H90.4456V69.3414H87.4307V66.3265Z" fill="#FF8906"></path><path d="M84.4157 69.3413H87.4306V72.3562H84.4157V69.3413Z" fill="#FF8906"></path><path d="M81.4008 21.7278V63.3116H84.4156V21.7278L90.887 28.1992L93.0185 26.0677L82.9082 15.9574L72.7979 26.0677L74.9294 28.1992L81.4008 21.7278Z" fill="#E53170"></path><path d="M51.2523 24.119C52.0848 24.119 52.7597 23.4441 52.7597 22.6115C52.7597 21.779 52.0848 21.1041 51.2523 21.1041C50.4198 21.1041 49.7449 21.779 49.7449 22.6115C49.7449 23.4441 50.4198 24.119 51.2523 24.119Z" fill="#272343"></path><path d="M42.208 24.119C43.0406 24.119 43.7155 23.4441 43.7155 22.6115C43.7155 21.779 43.0406 21.1041 42.208 21.1041C41.3755 21.1041 40.7006 21.779 40.7006 22.6115C40.7006 23.4441 41.3755 24.119 42.208 24.119Z" fill="#272343"></path><path d="M52.4419 28.1251L52.6002 27.807L49.9034 26.4579L49.7451 26.7775C49.1708 27.9261 48.0161 28.6406 46.7302 28.6406C45.4444 28.6406 44.2897 27.9261 43.7154 26.7775L43.5571 26.4594L40.8603 27.8085L41.0186 28.1266C42.107 30.3033 44.2958 31.6555 46.7302 31.6555C49.1647 31.6555 51.3535 30.3033 52.4419 28.1251Z" fill="#272343"></path><path d="M76.8787 66.3266V58.9161C76.8787 51.7543 72.8991 45.3176 66.494 42.1143C64.6806 41.2084 62.7481 40.6054 60.7477 40.3205L53.9764 39.3527L53.099 35.848C55.6843 34.2305 57.6078 31.6679 58.3916 28.6425H58.7896C62.115 28.6425 64.8193 25.9382 64.8193 22.6128C64.8193 21.2064 64.3158 19.9281 63.5063 18.9015C63.9676 17.4649 64.8193 14.4833 64.8193 12.0593C64.8193 9.00378 62.5325 6.47131 59.5825 6.08089L58.8167 5.06187C56.441 1.89176 52.6574 -6.10352e-05 48.6944 -6.10352e-05C47.2156 -6.10352e-05 45.7594 0.256201 44.3696 0.762695L34.4537 4.36845C30.9776 5.63017 28.6411 8.96609 28.6411 12.6653C28.6411 13.3874 28.73 14.1064 28.9124 14.8315L29.9918 18.8563C29.1597 19.8889 28.6411 21.1838 28.6411 22.6113C28.6411 25.9367 31.3454 28.641 34.6708 28.641H35.0672C35.8496 31.6664 37.7746 34.2305 40.3598 35.8465L39.4825 39.3512L32.7127 40.319C30.7123 40.6039 28.7798 41.2084 26.9648 42.1128C20.5613 45.3176 16.5817 51.7543 16.5817 58.9161V66.3266H19.5966V93.4602H28.6411H30.1485H63.3118H64.8193H73.8638V66.3266H76.8787ZM54.0608 42.4083L53.1096 48.7998L49.1617 46.4301L53.2935 42.2982L54.0608 42.4083ZM46.5161 54.2672H46.9442L49.6651 71.9583L46.7302 75.8731L43.7952 71.9583L46.5161 54.2672ZM47.4311 51.2523H46.0292L44.9137 49.5776L46.7302 48.4877L48.5466 49.5776L47.4311 51.2523ZM58.7896 25.6261V19.5964C60.4523 19.5964 61.8044 20.9486 61.8044 22.6113C61.8044 24.274 60.4523 25.6261 58.7896 25.6261ZM35.4833 7.19939L45.3991 3.59364C46.4573 3.21075 47.5668 3.01479 48.6944 3.01479C51.7122 3.01479 54.5959 4.45588 56.4063 6.87078L58.0359 9.04448H58.7896C60.4523 9.04448 61.8044 10.3966 61.8044 12.0593C61.8044 13.6346 61.3326 15.6048 60.9331 16.9931C60.2653 16.7369 59.5478 16.5816 58.7896 16.5816C58.7896 13.2562 56.0853 10.5519 52.7599 10.5519C48.1924 10.5519 45.5544 12.1136 43.0023 13.6225C41.0683 14.7682 39.0634 15.9485 36.0094 16.5816H34.6708C33.9427 16.5816 33.2523 16.7308 32.6056 16.969L31.8293 14.0748C31.7147 13.6135 31.6559 13.1402 31.6559 12.6653C31.6559 10.2293 33.195 8.033 35.4833 7.19939ZM31.6559 22.6113C31.6559 20.9486 33.0081 19.5964 34.6708 19.5964V25.6261C33.0081 25.6261 31.6559 24.274 31.6559 22.6113ZM37.6856 25.6261V19.2889C40.6477 18.5201 42.7008 17.3052 44.5384 16.2183C46.9427 14.7938 49.0169 13.5668 52.7599 13.5668C54.4226 13.5668 55.7747 14.9189 55.7747 16.5816V25.6261C55.7747 30.6142 51.7183 34.6707 46.7302 34.6707C41.7421 34.6707 37.6856 30.6142 37.6856 25.6261ZM46.7302 37.6855C47.9783 37.6855 49.1843 37.4941 50.3163 37.1413L51.0897 40.2391L46.7302 44.5986L42.3692 40.2376L43.1425 37.1398C44.2761 37.4941 45.482 37.6855 46.7302 37.6855ZM40.1684 42.2998L44.3002 46.4316L40.3523 48.8013L39.3996 42.4098L40.1684 42.2998ZM22.6114 90.4454V66.3266H28.6411V90.4454H22.6114ZM61.8044 57.282V90.4454H31.6559V57.282H28.6411V63.3117H19.5966V58.9161C19.5966 52.9045 22.937 47.4989 28.314 44.8111C29.835 44.0514 31.4585 43.5434 33.1377 43.3052L36.4134 42.8364L38.0339 53.7049L42.324 51.1302L43.643 53.108L40.6206 72.7527L46.7302 80.8988L52.8398 72.7542L49.8174 53.1095L51.1364 51.1317L55.4265 53.7064L57.0455 42.8379L60.3241 43.3067C62.0019 43.5449 63.6254 44.0529 65.1464 44.8126C70.5234 47.4989 73.8638 52.9045 73.8638 58.9161V63.3117H64.8193V57.282H61.8044ZM70.849 90.4454H64.8193V66.3266H70.849V90.4454Z" fill="#272343"></path><path d="M90.4455 69.3413H93.4603V72.3562H90.4455V69.3413Z" fill="#FF8906"></path><path d="M87.4307 72.3561H90.4456V75.3709H87.4307V72.3561Z" fill="#FF8906"></path><path d="M79.8933 81.4009H82.9081V84.4157H79.8933V81.4009Z" fill="#FF8906"></path><path d="M76.8785 84.4156H79.8934V87.4305H76.8785V84.4156Z" fill="#FF8906"></path><path d="M82.9083 84.4156H85.9232V87.4305H82.9083V84.4156Z" fill="#FF8906"></path><path d="M79.8933 87.4307H82.9081V90.4455H79.8933V87.4307Z" fill="#FF8906"></path><path d="M3.01475 66.3265H6.02959V69.3414H3.01475V66.3265Z" fill="#FF8906"></path><path d="M6.0295 69.3413H9.04435V72.3562H6.0295V69.3413Z" fill="#FF8906"></path><path d="M-7.62939e-06 69.3413H3.01484V72.3562H-7.62939e-06V69.3413Z" fill="#FF8906"></path><path d="M3.01475 72.3561H6.02959V75.3709H3.01475V72.3561Z" fill="#FF8906"></path><path d="M10.5519 81.4009H13.5668V84.4157H10.5519V81.4009Z" fill="#FF8906"></path><path d="M13.567 84.4156H16.5818V87.4305H13.567V84.4156Z" fill="#FF8906"></path><path d="M7.53716 84.4156H10.552V87.4305H7.53716V84.4156Z" fill="#FF8906"></path><path d="M10.5519 87.4307H13.5668V90.4455H10.5519V87.4307Z" fill="#FF8906"></path></svg>