<svg xmlns="http://www.w3.org/2000/svg" width="94" height="94" viewBox="0 0 94 94" fill="none">
<path d="M31.1535 18.692V54.5184H46.7302V48.2878H51.4032C52.6426 48.2878 53.8312 47.7954 54.7075 46.9191C55.5839 46.0427 56.0762 44.8541 56.0762 43.6147V34.2687H62.3069L56.0762 18.692H31.1535Z" fill="#FEC9A3"></path><path d="M60.7492 14.0189C60.7492 15.2583 60.2569 16.4469 59.3805 17.3232C58.5042 18.1996 57.3156 18.6919 56.0762 18.6919H43.6149L40.4995 23.3649H38.9942C38.0894 23.365 37.2106 23.6674 36.4974 24.2243C35.7842 24.7811 35.2776 25.5604 35.0582 26.4382C34.8343 27.3338 34.9226 28.279 35.3085 29.1177C35.6943 29.9564 36.3547 30.6384 37.1805 31.0511L37.3842 31.1533L31.1535 35.8263V18.6919C31.1535 16.6263 31.9741 14.6453 33.4347 13.1847C34.8953 11.7241 36.8763 10.9036 38.9419 10.9036H60.7492V14.0189Z" fill="#272343"></path><path d="M70.0953 80.9988V91.9025H57.6339C55.9814 91.9025 54.3966 91.2461 53.2281 90.0776C52.0597 88.9091 51.4032 87.3243 51.4032 85.6719V93.4602H17.1345V63.8645C17.1345 61.3857 18.1191 59.0085 19.8718 57.2558C21.6246 55.5031 24.0018 54.5184 26.4805 54.5184H51.4032C52.631 54.5167 53.8471 54.7573 54.9818 55.2263C56.1165 55.6954 57.1475 56.3837 58.0157 57.2519C58.8839 58.1201 59.5723 59.1511 60.0414 60.2858C60.5104 61.4205 60.751 62.6366 60.7492 63.8645V80.9988H70.0953Z" fill="#4D5E78"></path><path d="M85.6719 91.9026H70.0952V80.9989L74.7682 74.7682H79.4412L77.8836 80.9989H85.6719C86.085 80.9989 86.4812 81.163 86.7734 81.4551C87.0655 81.7472 87.2296 82.1434 87.2296 82.5565V90.3449C87.2296 90.758 87.0655 91.1542 86.7734 91.4463C86.4812 91.7385 86.085 91.9026 85.6719 91.9026Z" fill="#FEC9A3"></path><path d="M48.2877 54.5184L38.9417 77.8835L29.5956 54.5184H48.2877Z" fill="#E0E0DE"></path><path d="M42.0572 54.5184V70.0951L38.9419 77.8835L35.8265 70.0951V54.5184H42.0572Z" fill="#FF8906"></path><path d="M42.057 20.2497C42.057 17.2511 40.1818 14.7129 37.6007 13.871C38.0369 12.9427 38.2621 11.9293 38.2602 10.9036C38.2602 7.21663 35.427 4.22785 31.9321 4.22785C30.8145 4.22814 29.7188 4.53816 28.7668 5.12351C27.9727 4.01975 26.9274 3.12069 25.7173 2.50055C24.5072 1.88042 23.167 1.55701 21.8073 1.55701C20.4475 1.55701 19.1073 1.88042 17.8972 2.50055C16.6871 3.12069 15.6419 4.01975 14.8478 5.12351C13.8957 4.53816 12.8 4.22814 11.6824 4.22785C8.18759 4.22785 5.35438 7.21663 5.35438 10.9036C5.35245 11.9293 5.57767 12.9427 6.01386 13.871C3.4328 14.7129 1.55756 17.2511 1.55756 20.2497C1.55756 23.2482 3.4328 25.7864 6.01386 26.6283C5.57767 27.5566 5.35245 28.57 5.35438 29.5957C5.35438 33.2825 8.18759 36.2715 11.6824 36.2715C12.8 36.2712 13.8957 35.9612 14.8478 35.3758C15.6419 36.4796 16.6871 37.3786 17.8972 37.9988C19.1073 38.6189 20.4475 38.9423 21.8073 38.9423C23.167 38.9423 24.5072 38.6189 25.7173 37.9988C26.9274 37.3786 27.9727 36.4796 28.7668 35.3758C29.7188 35.9612 30.8145 36.2712 31.9321 36.2715C35.427 36.2715 38.2602 33.2825 38.2602 29.5957C38.2621 28.57 38.0369 27.5566 37.6007 26.6283C40.1818 25.7864 42.057 23.2492 42.057 20.2497Z" fill="#FF8906"></path><path d="M28.038 15.5766C28.0383 14.5605 27.7901 13.5597 27.3149 12.6614C26.8398 11.7632 26.1522 10.9948 25.3121 10.4232C24.472 9.85162 23.5048 9.49418 22.4948 9.38205C21.4849 9.26992 20.4629 9.40649 19.5178 9.77987C18.5728 10.1533 17.7334 10.7521 17.0728 11.5242C16.4122 12.2964 15.9505 13.2184 15.7279 14.2098C15.5053 15.2013 15.5286 16.2321 15.7957 17.2125C16.0628 18.193 16.5657 19.0932 17.2604 19.8347C18.1673 20.7804 18.6793 22.0364 18.6919 23.3466V23.3649H24.9226V23.3455C24.9293 22.0441 25.4348 20.7948 26.3348 19.8549C27.4303 18.7001 28.04 17.1684 28.038 15.5766Z" fill="#FEE97E"></path><path d="M18.6921 23.3651H24.9228V29.5958H18.6921V23.3651Z" fill="#92563A"></path><path d="M91.9027 56.076V49.8453H88.3333C88.1201 49.127 87.833 48.4326 87.4766 47.7734L89.9994 45.2502L85.5941 40.8449L83.0713 43.3678C82.4121 43.0114 81.7178 42.7243 80.9994 42.5111V38.9417H74.7683V42.5111C74.0499 42.7243 73.3556 43.0114 72.6964 43.3678L70.1732 40.8449L65.7679 45.2502L68.2907 47.7731C67.9343 48.4322 67.6472 49.1266 67.434 49.845H63.8646V56.0756H67.434C67.6472 56.794 67.9343 57.4884 68.2907 58.1475L65.7679 60.6712L70.1732 65.0764L72.696 62.5536C73.3552 62.91 74.0495 63.1971 74.7679 63.4103V66.9797H80.9986V63.4103C81.717 63.1971 82.4113 62.91 83.0705 62.5536L85.5941 65.0764L89.9994 60.6712L87.4766 58.1483C87.833 57.4891 88.1201 56.7948 88.3333 56.0764L91.9027 56.076ZM77.8837 57.6337C76.9594 57.6337 76.0559 57.3596 75.2875 56.8462C74.519 56.3327 73.9201 55.6028 73.5664 54.749C73.2127 53.8951 73.1201 52.9555 73.3004 52.049C73.4807 51.1426 73.9258 50.3099 74.5793 49.6564C75.2329 49.0028 76.0655 48.5578 76.972 48.3775C77.8785 48.1972 78.8181 48.2897 79.6719 48.6434C80.5258 48.9971 81.2556 49.596 81.7691 50.3645C82.2826 51.133 82.5567 52.0365 82.5567 52.9607C82.5567 54.2 82.0643 55.3886 81.188 56.265C80.3116 57.1414 79.123 57.6337 77.8837 57.6337Z" fill="#E53170"></path><path d="M49.8454 29.5958C51.566 29.5958 52.9608 28.201 52.9608 26.4805C52.9608 24.7599 51.566 23.3651 49.8454 23.3651C48.1249 23.3651 46.7301 24.7599 46.7301 26.4805C46.7301 28.201 48.1249 29.5958 49.8454 29.5958Z" fill="#272343"></path><path d="M85.6718 79.4412H79.8784L80.9522 75.146C81.0096 74.9163 81.0139 74.6766 80.9648 74.4451C80.9157 74.2135 80.8145 73.9962 80.6688 73.8096C80.5231 73.623 80.3369 73.4721 80.1241 73.3683C79.9114 73.2645 79.6778 73.2106 79.4411 73.2106H74.7681C74.5263 73.2106 74.2878 73.2669 74.0715 73.375C73.8552 73.4832 73.667 73.6402 73.5219 73.8336L69.3162 79.4412H62.3067V63.8645C62.3035 60.9737 61.1536 58.2022 59.1095 56.1581C57.0654 54.1139 54.2939 52.9641 51.403 52.9608H48.2877V49.8455H51.403C53.0549 49.8437 54.6386 49.1866 55.8067 48.0185C56.9748 46.8505 57.6318 45.2667 57.6337 43.6148V35.8265H62.3067C62.5613 35.8265 62.8119 35.7641 63.0368 35.6448C63.2617 35.5255 63.4539 35.3529 63.5966 35.1421C63.7393 34.9313 63.8282 34.6888 63.8554 34.4357C63.8827 34.1826 63.8475 33.9267 63.753 33.6903L58.2233 19.8679C59.42 19.427 60.4529 18.6301 61.1829 17.5844C61.913 16.5387 62.3052 15.2944 62.3067 14.0191V10.9037C62.3067 10.4906 62.1426 10.0944 61.8505 9.8023C61.5584 9.51018 61.1622 9.34607 60.749 9.34607H43.6147V12.4614H59.1914V14.0191C59.1904 14.845 58.8619 15.6369 58.2778 16.2209C57.6938 16.8049 56.902 17.1334 56.076 17.1344H46.73V20.2498H55.0215L60.006 32.7111H56.076C55.6629 32.7111 55.2667 32.8752 54.9746 33.1674C54.6825 33.4595 54.5184 33.8557 54.5184 34.2688V37.3658C53.8258 37.3058 53.1602 37.0686 52.5858 36.677C52.0114 36.2854 51.5474 35.7526 51.2385 35.1298L48.4522 36.5231C49.0184 37.6644 49.8793 38.6337 50.9458 39.3306C52.0124 40.0275 53.2458 40.4266 54.5184 40.4868V43.6148C54.5174 44.4408 54.1888 45.2326 53.6048 45.8166C53.0208 46.4006 52.229 46.7292 51.403 46.7302H46.73C46.3169 46.7302 45.9207 46.8943 45.6286 47.1864C45.3364 47.4785 45.1723 47.8747 45.1723 48.2878V52.9608H32.711V40.4995H29.5956V52.9608H26.4803C23.5894 52.9641 20.8179 54.1139 18.7738 56.1581C16.7297 58.2022 15.5798 60.9737 15.5766 63.8645V93.4603H18.6919V63.8645C18.6943 61.7997 19.5156 59.82 20.9757 58.3599C22.4358 56.8998 24.4154 56.0785 26.4803 56.0762H28.5411L34.38 70.6737L37.4954 78.4621C37.611 78.7511 37.8105 78.9989 38.0683 79.1735C38.3261 79.348 38.6303 79.4413 38.9417 79.4413C39.253 79.4413 39.5572 79.348 39.815 79.1735C40.0728 78.9989 40.2723 78.7511 40.388 78.4621L43.5033 70.6737L49.3422 56.0762H51.403C53.4679 56.0785 55.4476 56.8998 56.9077 58.3599C58.3678 59.82 59.1891 61.7997 59.1914 63.8645V80.9989C59.1914 81.412 59.3555 81.8082 59.6476 82.1004C59.9397 82.3925 60.3359 82.5566 60.749 82.5566H68.5374V90.3449H57.6337C56.3948 90.3435 55.207 89.8507 54.331 88.9747C53.4549 88.0986 52.9621 86.9108 52.9607 85.6719V70.0952H49.8453V73.2106H45.1723V76.3259H49.8453V93.4603H52.9607V91.8989C54.307 92.9139 55.9477 93.462 57.6337 93.4603H85.6718C86.4977 93.4593 87.2895 93.1308 87.8736 92.5467C88.4576 91.9627 88.7861 91.1709 88.7871 90.3449V82.5566C88.7861 81.7306 88.4576 80.9388 87.8736 80.3548C87.2895 79.7708 86.4977 79.4422 85.6718 79.4412ZM34.2686 56.0762V62.0068L31.8963 56.0762H34.2686ZM37.384 69.7952V56.0762H40.4993V69.7952L38.9417 73.6894L37.384 69.7952ZM43.6147 62.0068V56.0762H45.987L43.6147 62.0068ZM85.6718 90.3449H71.6527V81.5182L75.5469 76.3259H77.4461L76.3723 80.6212C76.3149 80.8508 76.3106 81.0905 76.3597 81.3221C76.4088 81.5536 76.51 81.771 76.6557 81.9575C76.8014 82.1441 76.9877 82.295 77.2004 82.3988C77.4131 82.5026 77.6467 82.5566 77.8834 82.5566H85.6718L85.6737 90.3449H85.6718Z" fill="#272343"></path><path d="M24.9227 70.0952H28.038V93.4603H24.9227V70.0952Z" fill="#272343"></path><path d="M37.3841 82.5565H40.4994V85.6719H37.3841V82.5565Z" fill="#272343"></path><path d="M29.1705 37.3075C30.0506 37.6518 30.9873 37.8287 31.9323 37.8292C36.2805 37.8292 39.818 34.1355 39.818 29.5957C39.8192 28.8746 39.729 28.1562 39.5497 27.4578C40.7903 26.7077 41.8163 25.6501 42.5285 24.3874C43.2407 23.1246 43.6148 21.6994 43.6148 20.2497C43.6148 18.7999 43.2407 17.3747 42.5285 16.112C41.8163 14.8492 40.7903 13.7916 39.5497 13.0416C39.729 12.3431 39.8192 11.6248 39.818 10.9036C39.818 6.36382 36.2805 2.67019 31.9323 2.67019C30.9873 2.67066 30.0507 2.84757 29.1707 3.19182C28.227 2.18437 27.0866 1.3813 25.8201 0.832283C24.5536 0.28327 23.1878 0 21.8074 0C20.427 0 19.0613 0.28327 17.7948 0.832283C16.5282 1.3813 15.3878 2.18437 14.4441 3.19182C13.5641 2.84757 12.6275 2.67066 11.6826 2.67019C7.33432 2.67019 3.79685 6.36382 3.79685 10.9036C3.79567 11.6248 3.88582 12.3431 4.06516 13.0416C2.82453 13.7916 1.79851 14.8492 1.08634 16.112C0.374183 17.3747 0 18.7999 0 20.2497C0 21.6994 0.374183 23.1246 1.08634 24.3874C1.79851 25.6501 2.82453 26.7077 4.06516 27.4578C3.88582 28.1562 3.79567 28.8746 3.79685 29.5957C3.79685 34.1355 7.33432 37.8292 11.6826 37.8292C12.6276 37.8287 13.5642 37.6518 14.4443 37.3075C15.388 38.315 16.5283 39.1181 17.7948 39.6671C19.0613 40.2161 20.427 40.4994 21.8074 40.4994C23.1878 40.4994 24.5535 40.2161 25.82 39.6671C27.0865 39.1181 28.2269 38.315 29.1705 37.3075ZM16.0958 34.4439C15.8636 34.1332 15.5238 33.9202 15.1429 33.8468C14.7619 33.7734 14.3673 33.8447 14.0362 34.0469C13.3279 34.4815 12.5135 34.7122
 11.6826 34.7138C9.05204 34.7138 6.91219 32.4178 6.91219 29.5957C6.90931 28.7995 7.08384 28.0127 7.42311 27.2925C7.51734 27.0926 7.56796 26.8749 7.5716 26.654C7.57524 26.433 7.53183 26.2138 7.44424 26.0109C7.35666 25.808 7.2269 25.6261 7.06359 25.4772C6.90029 25.3283 6.70717 25.2159 6.49707 25.1474C4.50618 24.4978 3.11537 22.484 3.11537 20.2497C3.11537 18.0154 4.50618 16.0015 6.49707 15.352C6.70717 15.2835 6.90029 15.171 7.06359 15.0221C7.2269 14.8732 7.35666 14.6913 7.44424 14.4884C7.53183 14.2855 7.57524 14.0663 7.5716 13.8454C7.56796 13.6244 7.51734 13.4068 7.42311 13.2069C7.08384 12.4866 6.90931 11.6998 6.91219 10.9036C6.91219 8.08154 9.05204 5.78553 11.6826 5.78553C12.5135 5.78733 13.3278 6.01843 14.0358 6.45338C14.3669 6.65565 14.7616 6.72708 15.1425 6.65369C15.5235 6.58029 15.8634 6.36736 16.0956 6.05657C16.7447 5.14688 17.6016 4.40537 18.5951 3.89376C19.5886 3.38215 20.6899 3.11523 21.8074 3.11523C22.9249 3.11523 24.0262 3.38215 25.0197 3.89376C26.0132 4.40537 26.8702 5.14688 27.5192 6.05657C27.7515 6.36736 28.0913 6.58029 28.4723 6.65369C28.8533 6.72708 29.2479 6.65565 29.579 6.45338C30.287 6.01843 31.1013 5.78733 31.9323 5.78553C34.5628 5.78553 36.7026 8.08154 36.7026 10.9036C36.7055 11.6998 36.531 12.4866 36.1917 13.2069C36.0975 13.4068 36.0469 13.6244 36.0432 13.8454C36.0396 14.0663 36.083 14.2855 36.1706 14.4884C36.2582 14.6913 36.3879 14.8732 36.5512 15.0221C36.7145 15.171 36.9077 15.2835 37.1178 15.352C39.1087 16.0015 40.4995 18.0154 40.4995 20.2497C40.4995 22.484 39.1087 24.4978 37.1178 25.1474C36.9077 25.2159 36.7145 25.3283 36.5512 25.4772C36.3879 25.6261 36.2582 25.808 36.1706 26.0109C36.083 26.2138 36.0396 26.433 36.0432 26.654C36.0469 26.8749 36.0975 27.0926 36.1917 27.2925C36.531 28.0127 36.7055 28.7995 36.7026 29.5957C36.7026 32.4178 34.5628 34.7138 31.9323 34.7138C31.1012 34.7119 30.2868 34.4808 29.5786 34.046C29.2475 33.8438 28.8529 33.7724 28.472 33.8458C28.091 33.9193 27.7512 34.1322 27.519 34.443C26.87 35.3526 26.013 36.094 25.0196 36.6056C24.0261 37.1171 22.9249 37.384 21.8074 37.384C20.69 37.384 19.5887 37.1171 18.5952 36.6056C17.6018 36.094 16.7449 35.3526 16.0958 34.443V34.4439Z" fill="#272343"></path><path d="M26.4804 29.5957V23.365C26.4804 23.3617 26.4804 23.3586 26.4804 23.3555C26.4804 23.3524 26.4804 23.349 26.4804 23.3457C26.4864 22.4424 26.8395 21.576 27.4664 20.9257C28.511 19.821 29.2094 18.4348 29.4755 16.9379C29.7416 15.441 29.5638 13.899 28.964 12.502C28.3642 11.1049 27.3686 9.91399 26.1001 9.07603C24.8315 8.23807 23.3454 7.78972 21.825 7.78627C20.3047 7.78283 18.8166 8.22444 17.5442 9.05664C16.2719 9.88885 15.2709 11.0753 14.6648 12.4695C14.0586 13.8638 13.8739 15.4051 14.1332 16.9031C14.3925 18.4012 15.0847 19.7906 16.1242 20.9C16.7637 21.5623 17.1251 22.4444 17.1344 23.365V29.5957C17.1344 30.0088 17.2985 30.405 17.5906 30.6971C17.8827 30.9893 18.2789 31.1534 18.692 31.1534H24.9227C25.3358 31.1534 25.732 30.9893 26.0242 30.6971C26.3163 30.405 26.4804 30.0088 26.4804 29.5957ZM17.1457 15.247C17.2078 14.3668 17.518 13.5222 18.0402 12.8108C18.5624 12.0995 19.2753 11.5506 20.0965 11.2276C20.9177 10.9046 21.8135 10.8207 22.6804 10.9856C23.5473 11.1505 24.3498 11.5575 24.995 12.1595C25.4456 12.5797 25.8086 13.0849 26.0631 13.646C26.3177 14.207 26.4587 14.8129 26.478 15.4287C26.4974 16.0446 26.3947 16.6581 26.176 17.2341C25.9572 17.81 25.6266 18.337 25.2033 18.7847C24.3978 19.6306 23.8279 20.6727 23.5504 21.8073H20.0628C19.7777 20.6685 19.2039 19.6224 18.3969 18.7699C17.9552 18.3017 17.6158 17.7467 17.4004 17.1402C17.185 16.5337 17.0982 15.8889 17.1457 15.247ZM23.365 28.038H20.2497V24.9227H23.365V28.038Z" fill="#272343"></path><path d="M6.23059 18.692H10.9036V21.8074H6.23059V18.692Z" fill="#272343"></path><path d="M31.1535 18.692H35.8265V21.8074H31.1535V18.692Z" fill="#272343"></path><path d="M8.24194 10.4474L10.4445 8.24484L13.5593 11.3597L11.3568 13.5622L8.24194 10.4474Z" fill="#272343"></path><path d="M30.0477 11.3638L33.1625 8.24896L35.3651 10.4515L32.2503 13.5663L30.0477 11.3638Z" fill="#272343"></path><path d="M9.79694 30.0516L12.9118 26.9368L15.1143 29.1394L11.9995 32.2542L9.79694 30.0516Z" fill="#272343"></path><path d="M30.0449 29.1399L32.2474 26.9373L35.3622 30.0522L33.1597 32.2547L30.0449 29.1399Z" fill="#272343"></path><path d="M77.8835 46.7301C76.6511 46.7301 75.4465 47.0955 74.4219 47.7802C73.3972 48.4648 72.5986 49.4379 72.1271 50.5764C71.6555 51.7149 71.5321 52.9677 71.7725 54.1763C72.0129 55.385 72.6063 56.4952 73.4777 57.3665C74.3491 58.2379 75.4593 58.8313 76.6679 59.0717C77.8765 59.3122 79.1293 59.1888 80.2678 58.7172C81.4063 58.2456 82.3794 57.447 83.0641 56.4224C83.7487 55.3977 84.1141 54.1931 84.1141 52.9608C84.1123 51.3089 83.4552 49.7252 82.2872 48.5571C81.1191 47.389 79.5354 46.732 77.8835 46.7301ZM77.8835 56.0761C77.2673 56.0761 76.665 55.8934 76.1527 55.5511C75.6403 55.2088 75.241 54.7222 75.0053 54.153C74.7695 53.5837 74.7078 52.9573 74.828 52.353C74.9482 51.7487 75.2449 51.1936 75.6806 50.7579C76.1163 50.3222 76.6714 50.0255 77.2757 49.9053C77.88 49.7851 78.5064 49.8468 79.0756 50.0826C79.6449 50.3184 80.1315 50.7177 80.4738 51.23C80.8161 51.7423 80.9988 52.3446 80.9988 52.9608C80.9978 53.7867 80.6693 54.5786 80.0853 55.1626C79.5012 55.7466 78.7094 56.0751 77.8835 56.0761Z" fill="#272343"></path><path d="M91.9025 48.2878H89.4367C89.4107 48.2229 89.3843 48.1589 89.3575 48.0957L91.1009 46.3523C91.2455 46.2076 91.3603 46.0359 91.4386 45.8469C91.5169 45.6579 91.5571 45.4553 91.5571 45.2508C91.5571 45.0462 91.5169 44.8437 91.4386 44.6547C91.3603 44.4657 91.2455 44.294 91.1009 44.1493L86.695 39.7436C86.5504 39.599 86.3786 39.4842 86.1896 39.4059C86.0006 39.3276 85.798 39.2873 85.5935 39.2873C85.3889 39.2873 85.1863 39.3276 84.9973 39.4059C84.8083 39.4842 84.6365 39.599 84.4919 39.7436L82.7487 41.4869C82.685 41.46 82.6207 41.4335 82.5565 41.4076V38.9418C82.5565 38.5287 82.3924 38.1325 82.1003 37.8404C81.8081 37.5483 81.4119 37.3842 80.9988 37.3842H74.7681C74.355 37.3842 73.9588 37.5483 73.6667 37.8404C73.3746 38.1325 73.2105 38.5287 73.2105 38.9418V41.4076C73.1462 41.4335 73.0819 41.46 73.0183 41.4869L71.2751 39.7436C71.1304 39.599 70.9587 39.4842 70.7697 39.4059C70.5807 39.3276 70.3781 39.2873 70.1735 39.2873C69.9689 39.2873 69.7663 39.3276 69.5773 39.4059C69.3883 39.4842 69.2166 39.599 69.0719 39.7436L64.6661 44.1493C64.5214 44.294 64.4067 44.4657 64.3284 44.6547C64.2501 44.8437 64.2098 45.0462 64.2098 45.2508C64.2098 45.4553 64.2501 45.6579 64.3284 45.8469C64.4067 46.0359 64.5214 46.2076 64.6661 46.3523L66.4095 48.0957C66.3826 48.1593 66.3562 48.2233 66.3302 48.2878H63.8644C63.4513 48.2878 63.0551 48.452 62.763 48.7441C62.4709 49.0362 62.3068 49.4324 62.3068 49.8455V56.0762C62.3068 56.4893 62.4709 56.8855 62.763 57.1776C63.0551 57.4698 63.4513 57.6339 63.8644 57.6339H66.3302C66.3562 57.6988 66.3826 57.7628 66.4095 57.826L64.6661 59.5695C64.5214 59.7141 64.4067 59.8858 64.3284 60.0748C64.2501 60.2638 64.2098 60.4664 64.2098 60.6709C64.2098 60.8755 64.2501 61.0781 64.3284 61.2671C64.4067 61.456 64.5214 61.6278 64.6661 61.7724L69.0719 66.1781C69.2166 66.3228 69.3883 66.4375 69.5773 66.5158C69.7663 66.5941 69.9689 66.6344 70.1735 66.6344C70.3781 66.6344 70.5807 66.5941 70.7697 66.5158C70.9587 66.4375 71.1304 66.3228 71.2751 66.1781L73.0183 64.4349C73.0819 64.4617 73.1462 64.4882 73.2105 64.5141V66.9799C73.2105 67.393 73.3746 67.7892 73.6667 68.0813C73.9588 68.3735 74.355 68.5376 74.7681 68.5376H80.9988C81.4119 68.5376 81.8081 68.3735 82.1003 68.0813C82.3924 67.7892 82.5565 67.393 82.5565 66.9799V64.5141C82.6207 64.4882 82.685 64.4617 82.7487 64.4349L84.4919 66.1781C84.6365 66.3228 84.8083 66.4375 84.9973 66.5158C85.1863 66.5941 85.3889 66.6344 85.5935 66.6344C85.798 66.6344 86.0006 66.5941 86.1896 66.5158C86.3786 66.4375 86.5504 66.3228 86.695 66.1781L91.1009 61.7724C91.2455 61.6278 91.3603 61.456 91.4386 61.2671C91.5169 61.0781 91.5571 60.8755 91.5571 60.6709C91.5571 60.4664 91.5169 60.2638 91.4386 60.0748C91.3603 59.8858 91.2455 59.7141 91.1009 59.5695L89.3575 57.826C89.3843 57.7624 89.4107 57.6984 89.4367 57.6339H91.9025C92.3156 57.6339 92.7118 57.4698 93.0039 57.1776C93.2961 56.8855 93.4602 56.4893 93.4602 56.0762V49.8455C93.4602 49.4324 93.2961 49.0362 93.0039 48.7441C92.7118 48.452 92.3156 48.2878 91.9025 48.2878ZM90.3448 54.5185H88.3331C87.9975 54.5185 87.6709 54.6268 87.4019 54.8274C87.1329 55.028 86.9358 55.3101 86.8401 55.6317C86.6574 56.2469 86.4115 56.8415 86.1064 57.4061C85.9466 57.7012 85.8863 58.0401 85.9347 58.3722C85.983 58.7044 86.1374 59.012 86.3747 59.2494L87.7961 60.6707L85.5939 62.8739L84.1726 61.4525C83.9352 61.2151 83.6275 61.0608 83.2953 61.0125C82.9631 60.9642 82.6242 61.0245 82.3291 61.1844C81.7644 61.4893 81.1696 61.735 80.5543 61.9175C80.2327 62.0132 79.9506 62.2103 79.75 62.4793C79.5494 62.7483 79.4411 63.0749 79.4411 63.4105V65.4222H76.3258V63.4105C76.3258 63.0749 76.2175 62.7483 76.0169 62.4793C75.8163 62.2103 75.5343 62.0132 75.2126 61.9175C74.5975 61.7349 74.0028 61.4892 73.4383 61.1842C73.1431 61.0243 72.8042 60.964 72.472 61.0123C72.1398 61.0606 71.8321 61.2149 71.5948 61.4523L70.1734 62.8737L67.9705 60.6713L69.3918 59.25C69.6292 59.0126 69.7835 58.705 69.8319 58.3728C69.8802 58.0407 69.82 57.7018 69.6601 57.4066C69.3551 56.8419 69.1094 56.247 68.9269 55.6317C68.8311 55.3101 68.634 55.028 68.365 54.8274C68.096 54.6268 67.7694 54.5185 67.4338 54.5185H65.4221V51.4032H67.4338C67.7694 51.4032 68.096 51.2949 68.365 51.0943C68.634 50.8937 68.8311 50.6116 68.9269 50.29C69.1095 49.6749 69.3553 49.0804 69.6603 48.5159C69.8202 48.2207 69.8805 47.8818 69.8322 47.5496C69.7839 47.2174 69.6296 46.9097 69.3922 46.6724L67.9708 45.251L70.173 43.0478L71.5944 44.4692C71.8317 44.7066 72.1394 44.8609 72.4716 44.9092C72.8038 44.9575 73.1427 44.8973 73.4379 44.7373C74.0026 44.4324 74.5973 44.1867 75.2126 44.0043C75.5343 43.9085 75.8163 43.7114 76.0169 43.4424C76.2175 43.1734 76.3258 42.8468 76.3258 42.5112V40.4995H79.4411V42.5112C79.4411 42.8468 79.5494 43.1734 79.75 43.4424C79.9506 43.7114 80.2327 43.9085 80.5543 44.0043C81.1695 44.1868 81.7641 44.4325 82.3287 44.7375C82.6238 44.8974 82.9627 44.9577 83.2949 44.9094C83.6271 44.8611 83.9348 44.7068 84.1722 44.4694L85.5935 43.048L87.7965 45.2504L86.3751 46.6718C86.1377 46.9091 85.9834 47.2168 85.9351 47.549C85.8868 47.8812 85.9471 48.2201 86.107 48.5153C86.4119 49.08 86.6576 49.6748 86.8401 50.29C86.9358 50.6116 87.1329 50.8937 87.4019 51.0943C87.6709 51.2949 87.9975 51.4032 88.3331 51.4032H90.3448V54.5185Z" fill="#272343"></path></svg>