<svg xmlns="http://www.w3.org/2000/svg" width="30" height="30" viewBox="0 0 30 30" fill="none" class="mb-2 w-14 h-14 md:w-20 md:h-20 lg:w-16 lg:h-16"><path d="M8.6274 10.7812C8.6274 5.744 12.1026 2.04732 16.677 1.30781C16.1322 1.21975 15.5719 1.17334 14.9999 1.17188C9.62561 1.18559 5.27344 5.14418 5.27344 10.7812C5.27344 17.7832 12.1491 22.9688 12.1491 22.9688H17.4023C17.4023 22.9688 8.6274 17.4023 8.6274 10.7812Z" fill="#FFFF66"></path><path d="M18.2895 25.8964C17.6735 25.6979 17.0131 26.036 16.8144 26.6519L16.4905 27.6562H13.451L13.1271 26.6519C12.9284 26.036 12.2681 25.6977 11.652 25.8964C11.0361 26.0951 10.6978 26.7555 10.8965 27.3715L11.4824 29.1879C11.6385 29.6719 12.0891 30 12.5977 30H17.3438C17.8523 30 18.3029 29.6719 18.459 29.1879L19.045 27.3715C19.2437 26.7555 18.9054 26.0951 18.2895 25.8964Z" fill="#F25F4C"></path><path d="M22.6816 3.014C20.6778 1.08832 17.9297 0 15 0C12.0703 0 9.32221 1.08832 7.31842 3.014C5.24402 5.00771 4.10156 7.76613 4.10156 10.7812C4.10156 13.9109 5.37785 17.1776 7.79238 20.228C9.584 22.4914 11.3684 23.8477 11.4435 23.9044C11.6468 24.0577 11.8945 24.1406 12.1491 24.1406H17.795C18.048 24.1406 18.2943 24.0587 18.4969 23.9071C18.5726 23.8505 20.3709 22.4947 22.1767 20.2317C24.6115 17.1805 25.8984 13.9126 25.8984 10.7812C25.8984 7.76613 24.756 5.00771 22.6816 3.014ZM17.3835 21.7969H12.5633C11.3077 20.7451 6.44531 16.3134 6.44531 10.7812C6.44531 5.9802 10.1209 2.35746 15 2.34375C19.8791 2.35746 23.5547 5.9802 23.5547 10.7812C23.5547 16.3169 18.6424 20.7517 17.3835 21.7969Z" fill="#FF8906"></path><path d="M19.0969 9.37893C17.9118 8.7883 16.9527 7.53422 16.1648 5.54496C15.9905 5.10498 15.5688 4.81301 15.0956 4.8048C14.6246 4.79678 14.1908 5.07375 14.0013 5.50746C13.2177 7.30154 12.1791 8.61867 10.9144 9.42229C10.5723 9.63967 10.3668 10.0185 10.3712 10.4238C10.3881 12.019 10.8857 13.385 11.8502 14.4839C12.0727 14.7374 12.3936 14.8828 12.731 14.8828H16.1133V17.6953C16.1133 18.3425 16.6379 18.8671 17.2852 18.8671C17.9324 18.8671 18.457 18.3425 18.457 17.6953V14.1689C19.1063 13.3624 19.5264 12.1811 19.7362 10.58C19.8011 10.0843 19.5444 9.60193 19.0969 9.37893ZM16.7442 12.5391H13.3099C13.0194 12.0904 12.8343 11.5734 12.7566 10.9935C13.6105 10.3457 14.3684 9.52307 15.0243 8.53301C15.6762 9.60703 16.4268 10.4331 17.2876 11.0258C17.1296 11.7897 16.9246 12.2561 16.7442 12.5391ZM27.0703 7.32422C27.0703 6.51521 27.7262 5.85938 28.5352 5.85938C29.3442 5.85938 30 6.51521 30 7.32422C30 8.13322 29.3442 8.78906 28.5352 8.78906C27.7262 8.78906 27.0703 8.13322 27.0703 7.32422ZM29.8242 13.9453C29.8242 14.7543 29.1684 15.4102 28.3594 15.4102C27.5504 15.4102 26.8945 14.7543 26.8945 13.9453C26.8945 13.1363 27.5504 12.4805 28.3594 12.4805C29.1684 12.4805 29.8242 13.1363 29.8242 13.9453ZM0 7.32422C0 6.51521 0.65584 5.85938 1.46484 5.85938C2.27385 5.85938 2.92969 6.51521 2.92969 7.32422C2.92969 8.13322 2.27385 8.78906 1.46484 8.78906C0.65584 8.78906 0 8.13322 0 7.32422ZM3.16406 13.9453C3.16406 14.7543 2.50822 15.4102 1.69922 15.4102C0.890215 15.4102 0.234375 14.7543 0.234375 13.9453C0.234375 13.1363 0.890215 12.4805 1.69922 12.4805C2.50822 12.4805 3.16406 13.1363 3.16406 13.9453ZM5.85938 1.46484C5.85938 2.27385 5.20354 2.92969 4.39453 2.92969C3.58553 2.92969 2.92969 2.27385 2.92969 1.46484C2.92969 0.65584 3.58553 0 4.39453 0C5.20354 0 5.85938 0.65584 5.85938 1.46484ZM27.1875 1.46484C27.1875 2.27385 26.5317 2.92969 25.7227 2.92969C24.9137 2.92969 24.2578 2.27385 24.2578 1.46484C24.2578 0.65584 24.9137 0 25.7227 0C26.5317 0 27.1875 0.65584 27.1875 1.46484Z" fill="#E53170"></path></svg>