<svg xmlns="http://www.w3.org/2000/svg" width="30" height="30" viewBox="0 0 30 30" fill="none" class="mb-2  md:w-20 md:h-20 lg:w-16 lg:h-16"><path d="M8.21716 7.91015C8.21716 4.91467 10.172 2.37621 12.8754 1.49959C12.2202 1.28719 11.5212 1.17188 10.7953 1.17188C7.07382 1.17188 4.05701 4.18869 4.05701 7.91015C4.05701 11.6316 7.07382 14.6484 10.7953 14.6484C11.5213 14.6484 12.2202 14.5331 12.8754 14.3207C10.172 13.4441 8.21716 10.9056 8.21716 7.91015Z" fill="#FFFF66"></path><path d="M1.17187 29.9999C0.524647 29.9999 0 29.4753 0 28.828C0 22.9479 4.78387 18.164 10.664 18.164H11.8359C12.4831 18.164 13.0078 18.6887 13.0078 19.3359C13.0078 19.9831 12.4831 20.5078 11.8359 20.5078H10.664C6.07621 20.5078 2.34374 24.2402 2.34374 28.828C2.34374 29.4753 1.8191 29.9999 1.17187 29.9999ZM19.3359 7.91013C19.3359 3.54849 15.7875 0 11.4257 0C7.06404 0 3.51561 3.54849 3.51561 7.91013C3.51561 12.2718 7.0641 15.8203 11.4257 15.8203C15.7874 15.8203 19.3359 12.2718 19.3359 7.91013ZM16.9921 7.91013C16.9921 10.9794 14.4951 13.4765 11.4257 13.4765C8.35644 13.4765 5.85936 10.9794 5.85936 7.91013C5.85936 4.84083 8.35644 2.34374 11.4257 2.34374C14.4951 2.34374 16.9921 4.84083 16.9921 7.91013ZM19.3945 23.2617C19.3945 24.0707 20.0503 24.7265 20.8593 24.7265C21.6683 24.7265 22.3242 24.0707 22.3242 23.2617C22.3242 22.4527 21.6683 21.7968 20.8593 21.7968C20.0503 21.7968 19.3945 22.4527 19.3945 23.2617Z" fill="#FF8906"></path><path d="M29.6957 19.4856C29.2605 19.0065 28.5194 18.9709 28.0403 19.4059L25.5285 21.6871C25.3035 21.8913 25.1667 22.1751 25.1468 22.4784C25.041 24.1015 24.5469 25.4697 23.6759 26.5549C21.6026 26.2105 19.3419 26.3491 17.0129 26.9583C17.8004 24.4627 17.9677 22.2724 17.5218 20.3267C18.7203 19.5439 19.7646 19.2705 21.1239 19.0304L22.4916 20.3988C22.7203 20.6277 23.0203 20.7422 23.3203 20.7422C23.6201 20.7422 23.92 20.6279 24.1488 20.3992C24.6066 19.9416 24.6067 19.1996 24.1492 18.7419L23.2135 17.8058L24.9962 16.1521C25.4707 15.712 25.4985 14.9705 25.0584 14.496C24.6182 14.0216 23.8768 13.9936 23.4023 14.4337L20.9849 16.6761C18.9483 17.0239 17.4059 17.424 15.4579 18.9207C15.0615 19.2253 14.902 19.7479 15.0606 20.222C15.7781 22.365 15.4256 25.028 13.9831 28.3629C13.7952 28.7972 13.887 29.3019 14.2158 29.6423C14.4409 29.8754 14.7469 30 15.0589 30C15.2026 30 15.3475 29.9736 15.4864 29.9191C18.474 28.7479 21.367 28.4219 23.8525 28.9758C24.2483 29.0641 24.6614 28.9414 24.9449 28.6518C26.3488 27.2177 27.2075 25.3107 27.4441 23.1133L29.616 21.141C30.0951 20.7058 30.1308 19.9647 29.6957 19.4856Z" fill="#E53170"></path></svg>