<svg xmlns="http://www.w3.org/2000/svg" width="30" height="30" viewBox="0 0 30 30" fill="none" class="mb-2  md:w-20 md:h-20  lg:w-16 lg:h-16"><path d="M4.68415 22.9631V7.03691C4.68415 3.92117 7.11794 1.37421 10.1881 1.19246C10.0718 1.18555 9.95473 1.18169 9.83675 1.18169H7.02624C3.79246 1.18169 1.17102 3.80313 1.17102 7.03691V22.9631C1.17102 26.1969 3.79246 28.8183 7.02624 28.8183H9.83675C9.95473 28.8183 10.0718 28.8144 10.1881 28.8076C7.11794 28.6258 4.68415 26.0789 4.68415 22.9631Z" fill="#FFFF66"></path><path d="M9.83678 29.9894H7.02627C3.15198 29.9894 0 26.8374 0 22.9631V7.03693C0 3.16265 3.15198 0.0106659 7.02627 0.0106659H9.83678C13.7111 0.0106659 16.863 3.16265 16.863 7.03693V22.9631C16.863 26.8374 13.7111 29.9894 9.83678 29.9894ZM7.02627 2.35276C4.44341 2.35276 2.34209 4.45408 2.34209 7.03693V22.9631C2.34209 25.546 4.44341 27.6473 7.02627 27.6473H9.83678C12.4196 27.6473 14.521 25.546 14.521 22.9631V7.03693C14.521 4.45408 12.4196 2.35276 9.83678 2.35276H7.02627ZM21.026 18.7694L24.0622 13.7664C26.0785 10.4612 25.0321 6.13259 21.73 4.11313L20.2378 3.17612C19.6901 2.83224 18.9672 2.99742 18.6233 3.54517C18.2794 4.09287 18.4446 4.8157 18.9924 5.15963L20.4907 6.10039C20.4949 6.10303 20.4992 6.10572 20.5035 6.10835C22.7084 7.45353 23.4079 10.3417 22.0614 12.549L19.0239 17.5543C18.6883 18.1072 18.8645 18.8274 19.4174 19.163C19.6073 19.2782 19.8169 19.3331 20.0239 19.3331C20.4195 19.3331 20.8057 19.1324 21.026 18.7694ZM20.6398 25.5992L26.644 21.8939C28.6559 20.6612 29.9088 18.516 29.9956 16.1555C30.0453 14.8031 29.6761 13.4428 28.9279 12.2218C28.5901 11.6703 27.8691 11.4972 27.3176 11.8351C26.7662 12.173 26.593 12.8939 26.9309 13.4454C27.4374 14.2721 27.6878 15.1794 27.6551 16.0696C27.5972 17.6443 26.7618 19.075 25.4172 19.8989L19.4098 23.606C18.8594 23.9457 18.6886 24.6672 19.0282 25.2176C19.2496 25.5763 19.6332 25.7738 20.0259 25.7738C20.2358 25.7738 20.4482 25.7174 20.6398 25.5992ZM9.95388 23.5487C9.95388 22.7402 9.29851 22.0849 8.49008 22.0849C7.68164 22.0849 7.02627 22.7402 7.02627 23.5487C7.02627 24.3571 7.68164 25.0125 8.49008 25.0125C9.29851 25.0125 9.95388 24.3571 9.95388 23.5487Z" fill="#FF8906"></path><path d="M10.7151 13.8875C9.90665 13.8875 9.25128 13.2322 9.25128 12.4237C9.25128 11.6153 9.90665 10.9599 10.7151 10.9599C11.5235 10.9599 12.1789 11.6153 12.1789 12.4237C12.1789 13.2322 11.5235 13.8875 10.7151 13.8875ZM7.61182 18.1033C7.61182 17.2949 6.95644 16.6395 6.14801 16.6395C5.33958 16.6395 4.6842 17.2949 4.6842 18.1033C4.6842 18.9117 5.33958 19.5671 6.14801 19.5671C6.95644 19.5671 7.61182 18.9117 7.61182 18.1033ZM7.61182 6.86128C7.61182 6.05285 6.95644 5.39747 6.14801 5.39747C5.33958 5.39747 4.6842 6.05285 4.6842 6.86128C4.6842 7.66971 5.33958 8.32508 6.14801 8.32508C6.95644 8.32508 7.61182 7.66971 7.61182 6.86128ZM7.61182 12.4237C7.61182 11.6153 6.95644 10.9599 6.14801 10.9599C5.33958 10.9599 4.6842 11.6153 4.6842 12.4237C4.6842 13.2322 5.33958 13.8875 6.14801 13.8875C6.95644 13.8875 7.61182 13.2322 7.61182 12.4237ZM12.1789 6.80273C12.1789 5.9943 11.5235 5.33892 10.7151 5.33892C9.90665 5.33892 9.25128 5.9943 9.25128 6.80273C9.25128 7.61116 9.90665 8.26653 10.7151 8.26653C11.5235 8.26653 12.1789 7.61116 12.1789 6.80273ZM12.1789 18.1033C12.1789 17.2949 11.5235 16.6395 10.7151 16.6395C9.90665 16.6395 9.25128 17.2949 9.25128 18.1033C9.25128 18.9117 9.90665 19.5671 10.7151 19.5671C11.5235 19.5671 12.1789 18.9117 12.1789 18.1033Z" fill="#E53170"></path></svg>