<svg xmlns="http://www.w3.org/2000/svg" width="94" height="94" viewBox="0 0 94 94" fill="none"><path d="M28.234 40.6552C27.5406 41.8159 27.0431 43.1123 26.7869 44.4992L25.8071 49.6998C17.275 49.0214 10.5519 41.8762 10.5519 33.1633C10.5519 23.9982 17.9685 16.5817 27.1336 16.5817C31.083 16.5817 34.7159 17.9685 37.565 20.2749C34.9722 21.4657 33.1633 24.0886 33.1633 27.1336C33.1633 27.7517 33.2387 28.3546 33.3894 28.9425C32.0327 26.9377 29.7414 25.6262 27.1336 25.6262C22.9731 25.6262 19.5965 29.0028 19.5965 33.1633C19.5965 37.3238 22.9731 40.7004 27.1336 40.7004C27.4954 40.7004 27.8421 40.6703 28.1888 40.6251L28.234 40.6552Z" fill="#FF8906"></path><path d="M24.1187 58.6389V58.7896H22.6113L21.737 55.0964C19.4909 54.5538 17.3655 53.6644 15.436 52.4886L12.2101 54.4784L5.81862 48.0869L7.80842 44.861C6.63263 42.9315 5.74325 40.8061 5.20057 38.56L1.50739 37.6857V28.6412L5.20057 27.7669C5.74325 25.5208 6.63263 23.3953 7.80842 21.4658L5.81862 18.2399L12.2101 11.8485L15.436 13.8383C17.3655 12.6625 19.4909 11.7731 21.737 11.2304L22.6113 7.53723H31.6559L32.5302 11.2304C34.7762 11.7731 36.9017 12.6625 38.8312 13.8383L42.0571 11.8485L48.4486 18.2399L46.1422 21.9181C44.7704 20.486 42.8409 19.5966 40.7004 19.5966C39.5849 19.5966 38.5146 19.8378 37.565 20.275C34.7159 17.9686 31.083 16.5818 27.1336 16.5818C17.9685 16.5818 10.5519 23.9983 10.5519 33.1634C10.5519 41.8763 17.275 49.0215 25.8071 49.6999L24.1187 58.6389Z" fill="#F25F4C"></path><path d="M72.3564 1.50739C61.5331 1.50739 52.7599 10.2806 52.7599 21.1039C52.7599 26.7115 55.1266 31.3242 58.8951 34.6707H66.3267C67.8643 34.6707 69.1456 35.8465 69.3265 37.3388C69.3416 37.4444 69.3416 37.565 69.3416 37.6856H75.3713H81.401C87.6718 34.4144 91.9529 28.6561 91.9529 21.1039C91.9529 10.2806 83.1797 1.50739 72.3564 1.50739Z" fill="#FFEAA7"></path><path d="M84.5966 14.8932C85.4107 15.7072 85.9232 16.8378 85.9232 18.0889C85.9232 20.5912 83.9032 22.6112 81.4009 22.6112H76.3058L76.6073 17.8025C76.758 15.4208 78.7328 13.5667 81.1296 13.5667H81.4009C82.6521 13.5667 83.7826 14.0792 84.5966 14.8932Z" fill="#E53170"></path><path d="M68.1053 17.8025L68.4068 22.6112H63.3117C62.0605 22.6112 60.93 22.0987 60.116 21.2847C59.302 20.4706 58.7894 19.3401 58.7894 18.0889C58.7894 15.5866 60.8094 13.5667 63.3117 13.5667H63.583C65.9798 13.5667 67.9546 15.4208 68.1053 17.8025Z" fill="#FF8906"></path><path d="M48.2377 85.9231V88.1842C48.2377 90.2644 46.5494 91.9527 44.4691 91.9527C43.429 91.9527 42.4793 91.5307 41.801 90.8523C41.1226 90.174 40.7006 89.2243 40.7006 88.1842V67.834C40.7006 67.0049 40.0222 66.3265 39.1931 66.3265H30.1938H30.1486C26.8172 66.3265 24.1189 63.6283 24.1189 60.2969V60.1461V58.7894H39.1931H42.208C45.5394 58.7894 48.2377 61.4877 48.2377 64.8191V85.9231Z" fill="#272343"></path><path d="M16.7323 86.8879L24.1187 60.1462V60.297C24.1187 63.6284 26.8169 66.3267 30.1483 66.3267H30.1936L23.8925 89.1038C23.3197 91.1992 21.2395 92.4051 19.2647 91.7871C17.29 91.1841 16.1595 88.9832 16.7323 86.8879Z" fill="#272343"></path><path d="M63.3117 46.7301V52.7598H40.2029L41.1978 46.7301H63.3117Z" fill="#E6E9ED"></path><path d="M58.8952 34.6708H66.3268C67.8643 34.6708 69.1456 35.8466 69.3265 37.3389C69.3416 37.4444 69.3416 37.565 69.3416 37.6856C69.3416 38.5298 69.01 39.2835 68.4522 39.8262C67.9096 40.3688 67.1558 40.7005 66.3268 40.7005H63.3119H44.7555C43.2933 40.7005 42.0271 41.7707 41.7859 43.2179L41.198 46.7302L40.2031 52.7599L39.1931 58.7896H24.1189V58.6388L25.8072 49.6998L26.787 44.4992C27.0433 43.1123 27.5407 41.816 28.2342 40.6552C30.3446 37.0374 34.2639 34.6708 38.6354 34.6708H40.7006H58.8952Z" fill="#F25F4C"></path><path d="M46.1424 21.9179C47.4388 23.2745 48.2377 25.1136 48.2377 27.1336C48.2377 31.294 44.8611 34.6707 40.7006 34.6707C37.1581 34.6707 34.1885 32.2286 33.3896 28.9425C33.2388 28.3546 33.1635 27.7516 33.1635 27.1336C33.1635 24.0886 34.9724 21.4656 37.5651 20.2748C38.5148 19.8376 39.5851 19.5964 40.7006 19.5964C42.8411 19.5964 44.7706 20.4858 46.1424 21.9179Z" fill="#F0D0B4"></path><path d="M68.4522 39.8261C69.0099 39.2834 69.3416 38.5297 69.3416 37.6855H75.3712H81.4009V43.7152H72.3564H63.3119V40.7004H66.3267C67.1558 40.7004 67.9095 40.3688 68.4522 39.8261Z" fill="#AAB2BD"></path><path d="M72.3564 73.8638V43.7153H81.401V73.8638L76.8787 70.849L72.3564 73.8638Z" fill="#E53170"></path><path d="M72.3564 43.7153V73.8638L67.8341 70.849L63.3119 73.8638V52.7599V46.7302V43.7153H72.3564Z" fill="#FF8906"></path><path d="M81.4009 73.8638L76.8787 81.401H67.8341L63.3119 73.8638L67.8341 70.849L72.3564 73.8638L76.8787 70.849L81.4009 73.8638Z" fill="#AAB2BD"></path><path d="M76.8785 81.401L72.3563 88.9381L67.834 81.401H76.8785Z" fill="#E6E9ED"></path><path d="M72.3563 0C60.719 0 51.2524 9.46662 51.2524 21.1039C51.2524 25.6428 52.6905 29.743 55.4144 33.1633H47.4235C48.8616 31.5609 49.745 29.452 49.745 27.1336C49.745 25.1438 49.0923 23.3093 47.9994 21.8139L50.366 18.0228L42.2787 9.93543L38.8071 12.0835C37.2153 11.2002 35.533 10.5022 33.7844 10.0018L32.8498 6.02969H21.4175L20.4829 10.0002C18.7343 10.5022 17.052 11.1986 15.4601 12.082L11.9885 9.93543L3.90423 18.0197L6.05381 21.4898C5.17046 23.0832 4.47253 24.7655 3.97206 26.5126L0 27.4472V38.8795L3.97206 39.8141C4.47253 41.5612 5.17046 43.2435 6.05381 44.8368L3.90423 48.3084L11.9885 56.3927L15.4601 54.2431C17.0535 55.1265 18.7358 55.8244 20.4829 56.3249L21.4175 60.2969H22.5149L15.2808 86.4809C14.4878 89.351 16.0737 92.3794 18.8187 93.2326C19.3116 93.3864 19.8166 93.4618 20.3201 93.4618C21.1567 93.4618 21.9858 93.2492 22.747 92.8347C24.0253 92.1352 24.9479 90.9549 25.3473 89.5093L31.3363 67.8341H39.193L39.19 88.1828C39.19 91.0936 41.5567 93.4603 44.4675 93.4603C47.3783 93.4603 49.745 91.0936 49.745 88.1828V64.8192C49.745 60.6632 46.3638 57.2821 42.2079 57.2821H40.9733L41.4753 54.2672H61.8044V74.2813L72.3563 91.8669L82.9083 74.2813V38.581C89.6284 34.7567 93.4603 28.4345 93.4603 21.1039C93.4603 9.46662 83.9936 0 72.3563 0ZM65.3438 74.3205L67.8341 72.6608L72.3563 75.6757L76.8786 72.6608L79.3689 74.3205L76.0254 79.8934H68.6873L65.3438 74.3205ZM61.8044 45.2227H42.9827L43.2751 43.4666C43.3957 42.737 44.0213 42.2079 44.7614 42.2079H61.8044V45.2227ZM64.8192 45.2227H70.8489V71.0464L67.8341 69.037L64.8192 71.0464V45.2227ZM76.8786 69.037L73.8638 71.0464V45.2227H79.8934V71.0464L76.8786 69.037ZM79.8934 42.2079H66.3266C68.2878 42.2079 69.946 40.9431 70.5715 39.193H79.8934V42.2079ZM73.9557 36.1782H70.7585L70.0047 24.1188H74.7094L73.9557 36.1782ZM67.8326 37.6961C67.8235 38.5222 67.1527 39.193 66.3266 39.193H44.7614C42.5395 39.193 40.6643 40.7833 40.301 42.9721L37.9162 57.2821H25.9111L28.2702 44.775C29.2078 39.793 33.5703 36.1782 38.6383 36.1782H66.3266C66.7306 36.1782 67.109 36.3349 67.3924 36.6198C67.6728 36.8987 67.8235 37.271 67.8295 37.6645L67.8326 37.6961ZM27.3839 39.1764C27.2994 39.1794 27.218 39.193 27.1336 39.193C23.8082 39.193 21.1039 36.4887 21.1039 33.1633C21.1039 29.8379 23.8082 27.1336 27.1336 27.1336C29.0737 27.1336 30.8811 28.0697 32.0162 29.639C32.4835 31.2564 33.3909 32.6824 34.5984 33.7919C31.6423 34.716 29.0993 36.6244 27.3839 39.1764ZM31.8202 25.4453C30.4243 24.5996 28.8159 24.1188 27.1336 24.1188C22.1456 24.1188 18.0891 28.1753 18.0891 33.1633C18.0891 37.7278 21.4898 41.5024 25.89 42.1114C25.6443 42.7882 25.4438 43.4877 25.3081 44.2142L24.5906 48.0175C17.465 46.7995 12.0594 40.5195 12.0594 33.1633C12.0594 24.8514 18.8217 18.0891 27.1336 18.0891C29.8636 18.0891 32.5392 18.8473 34.8637 20.2357C33.3141 21.5486 32.2136 23.3726 31.8202 25.4453ZM34.6707 27.1336C34.6707 23.8082 37.3751 21.1039 40.7004 21.1039C44.0258 21.1039 46.7301 23.8082 46.7301 27.1336C46.7301 30.459 44.0258 33.1633 40.7004 33.1633C37.3751 33.1633 34.6707 30.459 34.6707 27.1336ZM16.2169 51.1981L15.4285 50.7188L12.4347 52.5714L7.72705 47.8637L9.57968 44.87L9.10032 44.0801C7.99085 42.2486 7.16931 40.2693 6.66281 38.1951L6.44273 37.2982L3.01485 36.4917V29.8349L6.43971 29.0285L6.6598 28.1315C7.16629 26.0588 7.98784 24.0781 9.0973 22.2466L9.57666 21.4567L7.72404 18.4629L12.4317 13.7552L15.4255 15.6079L16.2138 15.1285C18.0439 14.0175 20.0231 13.1975 22.0988 12.688L22.9957 12.4679L23.8052 9.04454H30.462L31.2685 12.4694L32.1654 12.6895C34.2411 13.1975 36.2204 14.019 38.0504 15.13L38.8388 15.6094L41.8325 13.7567L46.5372 18.4614L45.7865 19.6628C44.3378 18.6709 42.5862 18.0891 40.7004 18.0891C39.6859 18.0891 38.7137 18.2639 37.8017 18.5745C34.719 16.3209 30.9715 15.0742 27.1336 15.0742C17.159 15.0742 9.04454 23.1887 9.04454 33.1633C9.04454 41.9742 15.5038 49.4978 24.0298 50.9841L23.2701 55.0119L22.9973 53.8557L22.0988 53.6356C20.0261 53.1291 18.0484 52.3076 16.2169 51.1981ZM22.441 88.7074C22.2616 89.3601 21.8546 89.8862 21.2999 90.1891C20.807 90.4605 20.2402 90.5178 19.7111 90.352C18.5051 89.9781 17.8208 88.6018 18.1856 87.2843L24.3328 65.0333C25.3353 66.2603 26.6995 67.1648 28.2793 67.5718L22.441 88.7074ZM42.2079 60.2969C44.7011 60.2969 46.7301 62.3259 46.7301 64.8192V88.1828C46.7301 89.4294 45.7141 90.4454 44.4675 90.4454C43.2193 90.4454 42.2048 89.4294 42.2048 88.1828L42.2079 67.8341C42.2079 66.1714 40.8557 64.8192 39.193 64.8192H32.1277H30.1485C27.6552 64.8192 25.6262 62.7902 25.6262 60.2969H37.4127H39.193H42.2079ZM41.9772 51.2524L42.4792 48.2376H61.8044V51.2524H41.9772ZM70.4962 82.9083H74.2165L72.3563 86.0091L70.4962 82.9083ZM80.9893 36.1782H76.9766L77.7303 24.1188H81.4009C84.7262 24.1188 87.4306 21.4145 87.4306 18.0891C87.4306 14.7637 84.7262 12.0594 81.4009 12.0594H81.1265C77.9504 12.0594 75.3064 14.5421 75.1089 17.7122L74.8979 21.1039H69.8163L69.6038 17.7122C69.4063 14.5421 66.7623 12.0594 63.5861 12.0594H63.3118C59.9864 12.0594 57.2821 14.7637 57.2821 18.0891C57.2821 21.4145 59.9864 24.1188 63.3118 24.1188H66.9839L67.5612 33.3548C67.1618 33.2417 66.7517 33.1633 66.3266 33.1633H59.5116C56.0912 29.9525 54.2672 25.8041 54.2672 21.1039C54.2672 11.1293 62.3817 3.01485 72.3563 3.01485C82.331 3.01485 90.4454 11.1293 90.4454 21.1039C90.4454 27.5527 87.0808 32.886 80.9893 36.1782ZM77.9172 21.1039L78.1177 17.9007C78.2172 16.3164 79.5392 15.0742 81.1265 15.0742H81.4009C83.0636 15.0742 84.4157 16.4264 84.4157 18.0891C84.4157 19.7518 83.0636 21.1039 81.4009 21.1039H77.9172ZM66.7954 21.1039H63.3118C61.6491 21.1039 60.2969 19.7518 60.2969 18.0891C60.2969 16.4264 61.6491 15.0742 63.3118 15.0742H63.5861C65.175 15.0742 66.497 16.3164 66.595 17.9007L66.7954 21.1039Z" fill="#272343"></path></svg>