<svg xmlns="http://www.w3.org/2000/svg" width="30" height="31" viewBox="0 0 30 31" fill="none" class="mb-2  md:w-20 md:h-20 lg:w-16 lg:h-16"><path d="M15.0586 26.3711V11.4883C15.0586 9.579 13.5108 8.03125 11.6016 8.03125H8.14453V9.20312C6.23525 9.20312 4.6875 7.59678 4.6875 5.6875C4.6875 3.77822 6.23525 2.17188 8.14453 2.17188H4.6875C2.74588 2.17188 1.17188 3.74588 1.17188 5.6875C1.17188 7.62912 2.74588 9.20312 4.6875 9.20312H8.08594C9.99521 9.20312 11.543 10.7509 11.543 12.6602V26.3711C11.543 28.2804 13.0907 29.8281 15 29.8281C15.642 29.8281 16.2427 29.6525 16.7578 29.3477C15.7409 28.7458 15.0586 27.6384 15.0586 26.3711Z" fill="#FFFF66"></path><path d="M25.7225 31C24.58 31 23.5059 30.555 22.698 29.7472L19.213 26.2622C18.0257 25.0749 17.2243 23.5771 16.8951 21.9307L16.2315 18.6105C16.1547 18.2263 16.275 17.8292 16.5521 17.5522C16.8291 17.2752 17.2264 17.1551 17.6104 17.2317L20.9305 17.8953C22.577 18.2245 24.0748 19.0259 25.2621 20.2133L28.7471 23.6982C29.555 24.506 29.9999 25.5801 29.9999 26.7227C29.9999 27.8652 29.555 28.9393 28.747 29.7472C27.9391 30.5551 26.865 31 25.7225 31ZM18.8743 19.8744L19.1934 21.4713C19.4315 22.6624 20.0114 23.746 20.8703 24.6049L24.3553 28.0899C24.7204 28.4551 25.2061 28.6563 25.7225 28.6563C26.239 28.6563 26.7246 28.4551 27.0898 28.0899C27.455 27.7247 27.6561 27.2391 27.6561 26.7227C27.6561 26.2062 27.455 25.7206 27.0898 25.3554L23.6048 21.8705C22.7458 21.0115 21.6623 20.4317 20.4712 20.1936L18.8743 19.8744Z" fill="#E53170"></path><path d="M15 30C12.4476 30 10.3711 27.9235 10.3711 25.3711V11.6602C10.3711 10.4001 9.346 9.375 8.08594 9.375H4.6875C2.10281 9.375 0 7.27219 0 4.6875C0 2.10281 2.10281 0 4.6875 0H25.3125C27.8972 0 30 2.10281 30 4.6875C30 7.27219 27.8972 9.375 25.3125 9.375H21.9141C20.654 9.375 19.6289 10.4001 19.6289 11.6602V12.9492C19.6289 13.5964 19.1043 14.1211 18.457 14.1211C17.8098 14.1211 17.2852 13.5964 17.2852 12.9492V11.6602C17.2852 9.10775 19.3617 7.03125 21.9141 7.03125H25.3125C26.6048 7.03125 27.6562 5.97984 27.6562 4.6875C27.6562 3.39516 26.6048 2.34375 25.3125 2.34375H4.6875C3.39516 2.34375 2.34375 3.39516 2.34375 4.6875C2.34375 5.97984 3.39516 7.03125 4.6875 7.03125H8.08594C10.6383 7.03125 12.7148 9.10775 12.7148 11.6602V25.3711C12.7148 26.6312 13.7399 27.6562 15 27.6562C15.6046 27.6562 16.1746 27.4224 16.6049 26.9979C17.0655 26.5432 17.8075 26.5483 18.2621 27.009C18.7167 27.4697 18.7117 28.2117 18.251 28.6662C17.3793 29.5263 16.2247 30 15 30Z" fill="#FF8906"></path></svg>