<svg xmlns="http://www.w3.org/2000/svg" width="154" height="51" viewBox="0 0 154 51" fill="none" class="w-full"><path d="M19.2312 0.00445557H20.5957C25.333 0.107265 29.9931 2.00924 33.3402 5.37626C32.1043 6.63567 30.8428 7.84369 29.6327 9.1031C27.7532 7.40674 25.4875 6.09592 23.0159 5.63328C19.3599 4.86221 15.4207 5.55617 12.3569 7.63807C9.00985 9.82277 6.74417 13.5239 6.25499 17.4821C5.71432 21.3888 6.82141 25.5012 9.3703 28.5341C11.8162 31.4899 15.5494 33.3405 19.4114 33.469C23.0159 33.6746 26.7748 32.5694 29.401 30.0506C31.4607 28.2771 32.4133 25.5783 32.7223 22.9567C28.4484 22.9567 24.1745 22.9824 19.9006 22.9567V17.662H37.8973C38.8241 23.3422 37.4853 29.7421 33.1599 33.8031C30.2764 36.6818 26.2857 38.3781 22.2177 38.7123C18.2785 39.0978 14.2106 38.3524 10.7091 36.4505C6.51246 34.2143 3.16543 30.4361 1.51766 25.9896C-0.0271193 21.9029 -0.0528656 17.2765 1.38893 13.1641C2.702 9.41153 5.22514 6.09592 8.46918 3.78271C11.5845 1.49519 15.3692 0.235777 19.2312 0.00445557Z" fill="#272343"></path><path d="M122.474 1.34094H127.984V38.044C126.156 38.044 124.302 38.0697 122.474 38.0182C122.5 25.8096 122.474 13.5753 122.474 1.34094Z" fill="#272343"></path><path d="M50.1525 14.0636C53.5511 13.4211 57.2328 14.1407 60.0391 16.1712C62.588 17.9704 64.3645 20.7977 64.9052 23.8819C65.6003 27.4546 64.725 31.3613 62.4078 34.1886C59.9104 37.35 55.8167 39.0464 51.826 38.7893C48.1701 38.5837 44.6171 36.7588 42.4544 33.7774C40.0085 30.4875 39.4163 25.9638 40.7551 22.1085C42.0939 17.9704 45.8786 14.809 50.1525 14.0636ZM50.9249 18.9471C49.5346 19.3069 48.2473 20.1037 47.3204 21.2346C44.823 24.2161 44.9775 29.0738 47.7324 31.8497C49.3029 33.4432 51.6716 34.1886 53.86 33.7517C55.894 33.3918 57.6705 32.0296 58.6488 30.2304C60.3481 27.1719 59.8589 22.9567 57.2585 20.5663C55.585 19.0242 53.1391 18.3816 50.9249 18.9471Z" fill="#272343"></path><path d="M77.4437 14.0636C81.3314 13.3183 85.5795 14.3978 88.4888 17.1222C93.2262 21.3631 93.7411 29.3051 89.6989 34.1886C87.253 37.2729 83.2881 38.9692 79.3746 38.7893C75.6414 38.6865 71.9597 36.8359 69.7455 33.7774C67.2481 30.4103 66.7074 25.7839 68.1235 21.8515C69.5395 17.8419 73.247 14.7833 77.4437 14.0636ZM78.2161 18.9471C76.8257 19.3069 75.5384 20.1037 74.6116 21.2089C72.1399 24.139 72.2429 28.9196 74.8948 31.7212C76.4653 33.3918 78.9112 34.2143 81.1769 33.7517C83.1851 33.3661 84.9873 32.0296 85.9657 30.2304C87.6392 27.1461 87.15 22.931 84.5239 20.5406C82.8504 18.9985 80.4045 18.3816 78.2161 18.9471Z" fill="#272343"></path><path d="M100.59 15.5544C103.55 13.7038 107.49 13.1898 110.682 14.7833C111.686 15.2202 112.51 15.9656 113.308 16.711C113.334 16.017 113.308 15.2974 113.334 14.5777C115.059 14.6034 116.784 14.5777 118.535 14.6034V37.2729C118.509 40.6913 117.634 44.3154 115.162 46.8085C112.459 49.5586 108.314 50.4068 104.58 49.8414C100.59 49.2502 97.1139 46.3458 95.5691 42.6704C97.1139 41.925 98.7359 41.3339 100.332 40.6399C101.233 42.7475 103.061 44.5467 105.353 44.9579C107.644 45.3691 110.296 44.8037 111.789 42.9017C113.386 40.9483 113.386 38.2753 113.308 35.885C112.124 37.0416 110.759 38.0697 109.112 38.4552C105.533 39.4576 101.594 38.2239 98.8389 35.8079C96.0583 33.3918 94.4105 29.665 94.565 25.9638C94.6422 21.7744 97.0109 17.7391 100.59 15.5544ZM105.919 18.8443C104.349 19.1013 102.881 19.9752 101.877 21.1832C99.4568 24.0619 99.4568 28.6626 101.903 31.4899C103.293 33.1605 105.533 34.0858 107.696 33.8545C109.73 33.6489 111.609 32.3637 112.613 30.5903C114.312 27.5831 114.029 23.4964 111.738 20.8748C110.322 19.2555 108.056 18.4587 105.919 18.8443Z" fill="#272343"></path><path d="M134.601 16.8652C137.69 13.9865 142.453 13.0098 146.418 14.5263C150.177 15.9399 152.572 19.5125 153.782 23.188C148.195 25.5012 142.633 27.7887 137.046 30.1019C137.819 31.567 139.003 32.9035 140.599 33.4432C142.839 34.24 145.517 33.9573 147.397 32.4665C148.143 31.9011 148.735 31.1557 149.302 30.4361C150.718 31.387 152.134 32.3123 153.55 33.2633C151.542 36.2705 148.169 38.3781 144.539 38.7122C140.522 39.2006 136.248 37.6584 133.648 34.5227C129.374 29.5879 129.786 21.3117 134.601 16.8652ZM137.355 21.6201C136.48 22.8795 136.12 24.4217 136.145 25.9381C139.879 24.396 143.612 22.8538 147.345 21.286C146.727 19.8467 145.234 18.9728 143.715 18.7415C141.269 18.3045 138.72 19.6153 137.355 21.6201Z" fill="#272343"></path></svg>