<svg xmlns="http://www.w3.org/2000/svg" width="185" height="50" viewBox="0 0 185 50" fill="none" class="w-full"><path d="M174.594 23.8023L184.452 49.9511C181.547 49.5354 178.643 49.0146 175.687 48.5455L170.133 34.0973L164.427 47.3528C161.626 46.8837 158.875 46.7275 156.074 46.3632L166.087 23.4914L157.005 0.0488892H165.411L170.495 13.1466L175.944 0.0488892H184.451L174.594 23.8023ZM150.368 0.0488892H142.741V45.3767C145.231 45.5332 147.824 45.6362 150.368 45.9473V0.0488892ZM136.151 44.8562C129.2 44.3887 122.247 43.9746 115.139 43.8165V0.04909H122.921V36.4359C127.384 36.5391 131.845 36.9018 136.151 37.1096V44.8562ZM106.837 17.7758V25.5721H96.2013V43.2974H88.5244V0.0488892H110.315V7.84525H96.2029V17.776H106.838L106.837 17.7758ZM75.4483 7.84525V43.7133C72.8534 43.7133 70.2088 43.7133 67.6652 43.8165V7.84525H59.6232V0.0488892H83.5401V7.84525H75.4483ZM51.2191 25.9864C47.7956 25.9864 43.7479 25.9864 40.8425 26.1445V37.735C45.4082 37.4223 49.9738 37.0596 54.5907 36.9034V44.3887L33.0611 46.1053V0.0488892H54.5893V7.84525H40.8423V18.3463C43.8523 18.3463 48.4695 18.1901 51.2187 18.1901V25.988L51.2191 25.9864ZM8.10268 21.6199V48.8582C5.30353 49.1709 2.81146 49.5352 0.166656 49.9511V0.0488892H7.58634L17.7023 28.3802V0.0488892H25.4854V46.7274C22.736 47.1966 19.9336 47.3528 16.9768 47.7671L8.10268 21.6199Z" fill="#272343"></path></svg>