<svg xmlns="http://www.w3.org/2000/svg" width="34" height="50" viewBox="0 0 34 50" fill="none" class="w-full"><path d="M8.335 50C12.9341 50 16.6667 46.2667 16.6667 41.6667V33.3334H8.335C3.73591 33.3334 0.00332642 37.0667 0.00332642 41.6667C0.00332642 46.2667 3.73591 50 8.335 50Z" fill="#010101"></path><path d="M0.00332642 25C0.00332642 20.4 3.73591 16.6667 8.335 16.6667H16.6667V33.3333H8.335C3.73591 33.3333 0.00332642 29.6 0.00332642 25Z" fill="#272343"></path><path d="M0.00299072 8.33333C0.00299072 3.73333 3.73558 0 8.33466 0H16.6663V16.6667H8.33466C3.73558 16.6667 0.00299072 12.9333 0.00299072 8.33333Z" fill="#272343"></path><path d="M16.6667 0H24.9983C29.5974 0 33.33 3.73333 33.33 8.33333C33.33 12.9333 29.5974 16.6667 24.9983 16.6667H16.6667V0Z" fill="#4C4670"></path><path d="M33.33 25C33.33 29.6 29.5974 33.3333 24.9983 33.3333C20.3992 33.3333 16.6667 29.6 16.6667 25C16.6667 20.4 20.3992 16.6667 24.9983 16.6667C29.5974 16.6667 33.33 20.4 33.33 25Z" fill="#0E0B25"></path></svg>