<svg xmlns="http://www.w3.org/2000/svg" width="76" height="76" viewBox="0 0 76 76" fill="none" class="lg:mx-4 w-1/12 h-1/12 md:w-10 md:h-10"><g filter="url(#filter0_d)"><mask id="path-1-inside-1" fill="white"><path fill-rule="evenodd" clip-rule="evenodd" d="M55 21V0H27L27 21H6V49H27L27 70H55V49H76V21H55Z"></path></mask><path fill-rule="evenodd" clip-rule="evenodd" d="M55 21V0H27L27 21H6V49H27L27 70H55V49H76V21H55Z" fill="white"></path><path d="M55 0H56V-1H55V0ZM55 21H54V22H55V21ZM27 0V-1H26L26 -9.08261e-08L27 0ZM27 21V22H28L28 21L27 21ZM6 21V20H5V21H6ZM6 49H5V50H6V49ZM27 49L28 49L28 48H27V49ZM27 70L26 70L26 71H27V70ZM55 70V71H56V70H55ZM55 49V48H54V49H55ZM76 49V50H77V49H76ZM76 21H77V20H76V21ZM54 0V21H56V0H54ZM27 1H55V-1H27V1ZM28 21L28 9.08261e-08L26 -9.08261e-08L26 21L28 21ZM6 22H27V20H6V22ZM7 49V21H5V49H7ZM27 48H6V50H27V48ZM28 70L28 49L26 49L26 70L28 70ZM55 69H27V71H55V69ZM54 49V70H56V49H54ZM76 48H55V50H76V48ZM75 21V49H77V21H75ZM55 22H76V20H55V22Z" fill="#272343" mask="url(#path-1-inside-1)"></path></g><defs><filter id="filter0_d" x="0" y="0" width="76" height="76" filterUnits="userSpaceOnUse" color-interpolation-filters="sRGB"><feFlood flood-opacity="0" result="BackgroundImageFix"></feFlood><feColorMatrix in="SourceAlpha" type="matrix" values="0 0 0 0 0 0 0 0 0 0 0 0 0 0 0 0 0 0 127 0"></feColorMatrix><feOffset dx="-6" dy="6"></feOffset><feColorMatrix type="matrix" values="0 0 0 0 1 0 0 0 0 0.537255 0 0 0 0 0.0235294 0 0 0 1 0"></feColorMatrix><feBlend mode="normal" in2="BackgroundImageFix" result="effect1_dropShadow"></feBlend><feBlend mode="normal" in="SourceGraphic" in2="effect1_dropShadow" result="shape"></feBlend></filter></defs></svg>