<svg xmlns="http://www.w3.org/2000/svg" width="87" height="94" viewBox="0 0 87 94" fill="none"><path d="M32.0434 7.90093C24.1479 7.90093 17.692 14.3568 17.692 22.2523V46.1749H10.7911V22.2523C10.7911 10.5658 20.3569 1 32.0434 1H54.2957C65.6471 1 74.9977 10.0251 75.5246 21.2523H68.6124C68.0949 13.8189 61.8552 7.90093 54.2957 7.90093H32.0434Z" fill="#FFFF66" stroke="#272343" stroke-width="2"></path><path d="M26.4639 43.2794L14.2415 59.3213L2.01908 43.2794H26.4639Z" fill="#E74A81" stroke="#272343" stroke-width="2"></path><path d="M54.2957 85.5591C62.1912 85.5591 68.6471 79.1032 68.6471 71.2077V45.5049H75.548V71.2077C75.548 82.8942 65.9822 92.46 54.2957 92.46H32.0433C20.692 92.46 11.3414 83.4349 10.8144 72.2077H17.7266C18.2441 79.6411 24.4839 85.5591 32.0433 85.5591H54.2957Z" fill="#F25F4C" stroke="#272343" stroke-width="2"></path><path d="M84.3199 50.1806H59.8751L72.0975 34.1387L84.3199 50.1806Z" fill="#E74A81" stroke="#272343" stroke-width="2"></path></svg>