<svg xmlns="http://www.w3.org/2000/svg" width="48" height="34" viewBox="0 0 48 34" fill="none" class="float-right pr-2 w-16 h-16"><path d="M5.70285 5.96625C7.35038 5.96625 8.68598 4.63066 8.68598 2.98312C8.68598 1.33559 7.35038 0 5.70285 0C4.05532 0 2.71973 1.33559 2.71973 2.98312C2.71973 4.63066 4.05532 5.96625 5.70285 5.96625Z" fill="#FF8906"></path><path d="M18.8076 5.96625C20.4551 5.96625 21.7907 4.63066 21.7907 2.98312C21.7907 1.33559 20.4551 0 18.8076 0C17.1601 0 15.8245 1.33559 15.8245 2.98312C15.8245 4.63066 17.1601 5.96625 18.8076 5.96625Z" fill="#FF8906"></path><path d="M31.9122 5.96625C33.5597 5.96625 34.8953 4.63066 34.8953 2.98312C34.8953 1.33559 33.5597 0 31.9122 0C30.2647 0 28.9291 1.33559 28.9291 2.98312C28.9291 4.63066 30.2647 5.96625 31.9122 5.96625Z" fill="#FF8906"></path><path d="M45.0169 5.96625C46.6645 5.96625 48.0001 4.63066 48.0001 2.98312C48.0001 1.33559 46.6645 0 45.0169 0C43.3694 0 42.0338 1.33559 42.0338 2.98312C42.0338 4.63066 43.3694 5.96625 45.0169 5.96625Z" fill="#FF8906"></path><path d="M5.70285 19.0709C7.35038 19.0709 8.68598 17.7353 8.68598 16.0878C8.68598 14.4402 7.35038 13.1046 5.70285 13.1046C4.05532 13.1046 2.71973 14.4402 2.71973 16.0878C2.71973 17.7353 4.05532 19.0709 5.70285 19.0709Z" fill="#F25F4C"></path><path d="M5.70285 30.6412C7.35038 30.6412 8.68598 29.3056 8.68598 27.6581C8.68598 26.0106 7.35038 24.675 5.70285 24.675C4.05532 24.675 2.71973 26.0106 2.71973 27.6581C2.71973 29.3056 4.05532 30.6412 5.70285 30.6412Z" fill="#E53170"></path><path d="M18.8076 19.0709C20.4551 19.0709 21.7907 17.7353 21.7907 16.0878C21.7907 14.4402 20.4551 13.1046 18.8076 13.1046C17.1601 13.1046 15.8245 14.4402 15.8245 16.0878C15.8245 17.7353 17.1601 19.0709 18.8076 19.0709Z" fill="#F25F4C"></path><path d="M18.8076 30.6412C20.4551 30.6412 21.7907 29.3056 21.7907 27.6581C21.7907 26.0106 20.4551 24.675 18.8076 24.675C17.1601 24.675 15.8245 26.0106 15.8245 27.6581C15.8245 29.3056 17.1601 30.6412 18.8076 30.6412Z" fill="#E53170"></path><path d="M31.9122 19.0709C33.5597 19.0709 34.8953 17.7353 34.8953 16.0878C34.8953 14.4402 33.5597 13.1046 31.9122 13.1046C30.2647 13.1046 28.9291 14.4402 28.9291 16.0878C28.9291 17.7353 30.2647 19.0709 31.9122 19.0709Z" fill="#F25F4C"></path><path d="M31.9122 30.6412C33.5597 30.6412 34.8953 29.3056 34.8953 27.6581C34.8953 26.0106 33.5597 24.675 31.9122 24.675C30.2647 24.675 28.9291 26.0106 28.9291 27.6581C28.9291 29.3056 30.2647 30.6412 31.9122 30.6412Z" fill="#E53170"></path><path d="M45.0169 19.0709C46.6645 19.0709 48.0001 17.7353 48.0001 16.0878C48.0001 14.4402 46.6645 13.1046 45.0169 13.1046C43.3694 13.1046 42.0338 14.4402 42.0338 16.0878C42.0338 17.7353 43.3694 19.0709 45.0169 19.0709Z" fill="#F25F4C"></path><path d="M45.0169 30.6412C46.6645 30.6412 48.0001 29.3056 48.0001 27.6581C48.0001 26.0106 46.6645 24.675 45.0169 24.675C43.3694 24.675 42.0338 26.0106 42.0338 27.6581C42.0338 29.3056 43.3694 30.6412 45.0169 30.6412Z" fill="#E53170"></path><path d="M3.45669 7.69292C4.81348 7.69292 5.91338 6.59303 5.91338 5.23623C5.91338 3.87944 4.81348 2.77954 3.45669 2.77954C2.0999 2.77954 1 3.87944 1 5.23623C1 6.59303 2.0999 7.69292 3.45669 7.69292Z" stroke="#272343" stroke-width="1.5" stroke-linecap="round" stroke-linejoin="round"></path><path d="M16.5543 7.69292C17.9111 7.69292 19.011 6.59303 19.011 5.23623C19.011 3.87944 17.9111 2.77954 16.5543 2.77954C15.1976 2.77954 14.0977 3.87944 14.0977 5.23623C14.0977 6.59303 15.1976 7.69292 16.5543 7.69292Z" stroke="#272343" stroke-width="1.5" stroke-linecap="round" stroke-linejoin="round"></path><path d="M29.6591 7.69292C31.0159 7.69292 32.1158 6.59303 32.1158 5.23623C32.1158 3.87944 31.0159 2.77954 29.6591 2.77954C28.3023 2.77954 27.2024 3.87944 27.2024 5.23623C27.2024 6.59303 28.3023 7.69292 29.6591 7.69292Z" stroke="#272343" stroke-width="1.5" stroke-linecap="round" stroke-linejoin="round"></path><path d="M42.7637 7.69292C44.1205 7.69292 45.2204 6.59303 45.2204 5.23623C45.2204 3.87944 44.1205 2.77954 42.7637 2.77954C41.4069 2.77954 40.307 3.87944 40.307 5.23623C40.307 6.59303 41.4069 7.69292 42.7637 7.69292Z" stroke="#272343" stroke-width="1.5" stroke-linecap="round" stroke-linejoin="round"></path><path d="M3.45669 20.7906C4.81348 20.7906 5.91338 19.6907 5.91338 18.3339C5.91338 16.9771 4.81348 15.8772 3.45669 15.8772C2.0999 15.8772 1 16.9771 1 18.3339C1 19.6907 2.0999 20.7906 3.45669 20.7906Z" stroke="#272343" stroke-width="1.5" stroke-linecap="round" stroke-linejoin="round"></path><path d="M3.45669 32.361C4.81348 32.361 5.91338 31.2611 5.91338 29.9043C5.91338 28.5475 4.81348 27.4476 3.45669 27.4476C2.0999 27.4476 1 28.5475 1 29.9043C1 31.2611 2.0999 32.361 3.45669 32.361Z" stroke="#272343" stroke-width="1.5" stroke-linecap="round" stroke-linejoin="round"></path><path d="M16.5543 20.7906C17.9111 20.7906 19.011 19.6907 19.011 18.3339C19.011 16.9771 17.9111 15.8772 16.5543 15.8772C15.1976 15.8772 14.0977 16.9771 14.0977 18.3339C14.0977 19.6907 15.1976 20.7906 16.5543 20.7906Z" stroke="#272343" stroke-width="1.5" stroke-linecap="round" stroke-linejoin="round"></path><path d="M16.5543 32.361C17.9111 32.361 19.011 31.2611 19.011 29.9043C19.011 28.5475 17.9111 27.4476 16.5543 27.4476C15.1976 27.4476 14.0977 28.5475 14.0977 29.9043C14.0977 31.2611 15.1976 32.361 16.5543 32.361Z" stroke="#272343" stroke-width="1.5" stroke-linecap="round" stroke-linejoin="round"></path><path d="M29.6591 20.7906C31.0159 20.7906 32.1158 19.6907 32.1158 18.3339C32.1158 16.9771 31.0159 15.8772 29.6591 15.8772C28.3023 15.8772 27.2024 16.9771 27.2024 18.3339C27.2024 19.6907 28.3023 20.7906 29.6591 20.7906Z" stroke="#272343" stroke-width="1.5" stroke-linecap="round" stroke-linejoin="round"></path><path d="M29.6591 32.361C31.0159 32.361 32.1158 31.2611 32.1158 29.9043C32.1158 28.5475 31.0159 27.4476 29.6591 27.4476C28.3023 27.4476 27.2024 28.5475 27.2024 29.9043C27.2024 31.2611 28.3023 32.361 29.6591 32.361Z" stroke="#272343" stroke-width="1.5" stroke-linecap="round" stroke-linejoin="round"></path><path d="M42.7637 20.7906C44.1205 20.7906 45.2204 19.6907 45.2204 18.3339C45.2204 16.9771 44.1205 15.8772 42.7637 15.8772C41.4069 15.8772 40.307 16.9771 40.307 18.3339C40.307 19.6907 41.4069 20.7906 42.7637 20.7906Z" stroke="#272343" stroke-width="1.5" stroke-linecap="round" stroke-linejoin="round"></path><path d="M42.7637 32.361C44.1205 32.361 45.2204 31.2611 45.2204 29.9043C45.2204 28.5475 44.1205 27.4476 42.7637 27.4476C41.4069 27.4476 40.307 28.5475 40.307 29.9043C40.307 31.2611 41.4069 32.361 42.7637 32.361Z" stroke="#272343" stroke-width="1.5" stroke-linecap="round" stroke-linejoin="round"></path></svg>