<svg xmlns="http://www.w3.org/2000/svg" width="1203.94" height="287.85" viewBox="0 0 1203.94 287.85" class="h-full w-2/4  lg:w-64"><g id="Layer_2" data-name="Layer 2"><g id="Layer_1-2" data-name="Layer 1"><circle cx="200.44" cy="88.68" r="19.32" fill="#e53170" stroke="#272343" stroke-miterlimit="10" stroke-width="4"></circle><rect x="2" y="31.72" width="102.49" height="19.61" rx="9.81" fill="#f25f4c" stroke="#272343" stroke-miterlimit="10" stroke-width="4"></rect><rect x="15.15" y="2" width="76.18" height="20.62" rx="10.31" fill="#f25f4c" stroke="#272343" stroke-miterlimit="10" stroke-width="4"></rect><path d="M128.07,285.85c-1.21,0-2.42,0-3.64-.08a88.42,88.42,0,0,1-63.66-31.15,98.71,98.71,0,0,1-23.34-63.7V76.85c-.27-18.74,7-16.58,16-16.81,9.28-.24,16.88-1.65,16.88,16.44V190.92a65.77,65.77,0,0,0,15.55,42.45,55.31,55.31,0,0,0,82.35,2.35,56,56,0,0,0,15.19-38.66V132.53a16.68,16.68,0,0,1,16-16.8,16.44,16.44,0,0,1,16.88,16.43v65.48a88.21,88.21,0,0,1-88.23,88.21Z" fill="#ff7d05" stroke="#272343" stroke-miterlimit="10" stroke-width="4"></path><path d="M346.55,164.35V79H377v80.6q0,18,8.2,27.3t24.2,9.3q32.4,0,32.4-36.6V79h30.4v85.4q0,26.61-17.4,42.2t-45.4,15.6q-28.61,0-45.7-15.6T346.55,164.35Z" fill="#272343"></path><path d="M504.15,219V79h30.4V219Z" fill="#272343"></path><path d="M606.55,148.75q-.4-30.79,20.5-52.1t52.3-20.9q24.2,0,41.5,11.9T744,119l-27.4,10.6Q706.55,101,679,101q-19,0-29.8,12.6t-10.8,35.2q0,22.8,10.7,35.4t29.9,12.6q28,0,38.4-28.8l26.8,10.8q-7.8,21-24.3,32.2T679,222.15q-32.4,0-52.4-20.6T606.55,148.75Z" fill="#272343"></path><path d="M756.34,169q0-23.59,14.8-38.3T809,116q23.19,0,37.89,14.7t14.7,38.3q0,24-14.59,38.6t-38,14.6q-22.61,0-37.61-15.1T756.34,169Zm69.5,22.9q6.1-7.69,6.11-22.5t-6.11-22.9q-6.09-8.1-16.89-8.1T792,146.45q-6.09,8.1-6.09,22.9t6.09,22.5q6.11,7.71,16.91,7.7T825.84,191.85Z" fill="#272343"></path><path d="M876.54,193.35a32.1,32.1,0,0,1,4.8-17,33,33,0,0,1,13.3-11.6,86.78,86.78,0,0,1,19.4-6.9,196.38,196.38,0,0,1,25.3-3.9v-3.8q0-13.8-16.4-13.8-18.2,0-22,15.8l-25.6-5.6q1.2-12.6,14.1-21.6t33.3-9q21.6,0,33.1,9.8t11.5,29v36.6c0,2.67.33,4.34,1,5s2.33,1,5,1h8.8V219h-11.8q-12.8,0-17.1-4.5t-4.7-16.3h-9.4q-7.6,24-30.6,24-13.8,0-22.9-8T876.54,193.35Zm62.8-15.4v-6.4q-17.21,2.2-25.6,6.2t-8.4,12.8q0,10.8,13,10.8a20.35,20.35,0,0,0,15-6Q939.34,189.35,939.34,178Z" fill="#272343"></path><path d="M990.34,168.75q0-23.4,15.4-38.1t38.4-14.7q17.2,0,29.8,8.2a44.5,44.5,0,0,1,17.8,21.8l-26.2,9.8q-6.19-17.4-22.4-17.4a21.81,21.81,0,0,0-17.4,8q-6.79,8-6.8,22.4t6.9,22.6a21.87,21.87,0,0,0,17.5,8.2q16.4,0,23.2-19l26.8,9.6a48.93,48.93,0,0,1-19,23.3q-13.2,8.7-30.4,8.7-23.4,0-38.5-14.8T990.34,168.75Z" fill="#272343"></path><path d="M1111.14,219V79h28.4v21.2q0,24-12.6,41.8h12.4q4-12,11.8-19a27.2,27.2,0,0,1,18.8-7q16.2,0,25.1,9.9t8.9,26.9V219h-28.4v-60.8q0-18.79-16-18.8-9,0-13.4,5.4-6.6,8-6.6,26.8V219Z" fill="#272343"></path></g></g></svg>